<?xml version="1.0" encoding="utf-8"?>
<!-- Generator: Adobe Illustrator 22.0.1, SVG Export Plug-In . SVG Version: 6.00 Build 0)  -->
<svg version="1.1" id="exp-curiosity" xmlns="http://www.w3.org/2000/svg" xmlns:xlink="http://www.w3.org/1999/xlink" x="0px"
	 y="0px" viewBox="0 0 260 88" style="enable-background:new 0 0 260 88;" xml:space="preserve">
<style type="text/css">
	.st0{fill:#F7CFAA;}
	.st1{fill:url(#SVGID_1_);}
	.st2{fill:url(#SVGID_2_);}
	.st3{fill:url(#SVGID_3_);}
	.st4{fill:url(#SVGID_4_);}
	.st5{fill:url(#SVGID_5_);}
	.st6{fill:url(#SVGID_6_);}
	.st7{fill:url(#SVGID_7_);}
</style>
<g>
	<path class="st0" d="M2.4,32.8V2.4h17.8v0.9H3.3v13.4h15.8v0.9H3.3V32h17.5v0.9H2.4z"/>
	<path class="st0" d="M48.5,32.8L38.3,17.6L28.1,32.8H27l10.8-16L28.1,2.4h1.1l9.2,13.8l9.2-13.8h1.1l-9.7,14.5l10.8,16H48.5z"/>
	<path class="st0" d="M74.6,10c0,1.3-0.2,2.4-0.7,3.4c-0.5,1-1.1,1.8-1.9,2.5c-0.8,0.7-1.7,1.2-2.8,1.5c-1.1,0.3-2.2,0.5-3.4,0.5
		h-7.9v15h-0.9V2.4h8.3c1.1,0,2.2,0.1,3.3,0.4c1.1,0.2,2.1,0.7,3,1.2c0.9,0.6,1.6,1.3,2.2,2.3C74.3,7.3,74.6,8.5,74.6,10z M73.6,10
		c0-1.3-0.2-2.4-0.7-3.2c-0.5-0.9-1.1-1.5-1.9-2.1s-1.6-0.9-2.6-1.1c-1-0.2-1.9-0.3-2.9-0.3h-7.7v13.8h7.9c0.9,0,1.9-0.1,2.8-0.4
		c0.9-0.3,1.8-0.7,2.5-1.2c0.7-0.6,1.3-1.3,1.8-2.2C73.4,12.3,73.6,11.2,73.6,10z"/>
	<path class="st0" d="M82.3,32.8V2.4H100v0.9H83.2v13.4H99v0.9H83.2V32h17.5v0.9H82.3z"/>
	<path class="st0" d="M125.7,32.8l-9.2-15.4h-7.1v15.4h-0.9V2.4h8.4c1.1,0,2.3,0.1,3.4,0.3c1.1,0.2,2.2,0.6,3.1,1.1s1.6,1.3,2.2,2.3
		c0.6,1,0.9,2.2,0.9,3.8c0,1.4-0.3,2.6-0.8,3.6c-0.5,0.9-1.2,1.7-2.1,2.3c-0.9,0.6-1.8,1-2.9,1.3c-1,0.3-2.1,0.4-3.1,0.4l9.2,15.4
		H125.7z M125.4,9.9c0-1.3-0.3-2.4-0.8-3.3c-0.5-0.9-1.2-1.6-2-2.1c-0.8-0.5-1.8-0.9-2.9-1.1c-1.1-0.2-2.2-0.3-3.4-0.3h-7v13.5h7.4
		c2.8,0,5-0.6,6.4-1.8C124.7,13.7,125.4,12.1,125.4,9.9z"/>
	<path class="st0" d="M135,32.8V2.4h0.9v30.4H135z"/>
	<path class="st0" d="M146.4,32.8V2.4h17.8v0.9h-16.8v13.4h15.8v0.9h-15.8V32h17.5v0.9H146.4z"/>
	<path class="st0" d="M195.4,32.8L173.6,3.6h-0.1v29.2h-0.9V2.4h1.3l21.9,29.2h0.1V2.4h0.9v30.4H195.4z"/>
	<path class="st0" d="M227.2,32.6c-2,0.8-4,1.1-6,1.1c-2.3,0-4.4-0.4-6.3-1.2c-1.9-0.8-3.5-1.9-4.9-3.3c-1.4-1.4-2.4-3.1-3.2-5.1
		s-1.1-4.1-1.1-6.5c0-2.3,0.4-4.5,1.1-6.4s1.8-3.7,3.2-5.1s3-2.5,4.9-3.3c1.9-0.8,4-1.2,6.3-1.2c1.9,0,3.7,0.3,5.5,1
		c1.8,0.6,3.3,1.6,4.6,2.9l-0.6,0.7c-0.6-0.6-1.3-1.2-2-1.7c-0.8-0.5-1.6-0.9-2.4-1.2c-0.8-0.3-1.7-0.5-2.6-0.7
		c-0.9-0.1-1.7-0.2-2.5-0.2c-2.2,0-4.2,0.4-6,1.2c-1.8,0.8-3.3,1.9-4.6,3.2c-1.3,1.4-2.3,3-3,4.8c-0.7,1.8-1.1,3.8-1.1,6
		c0,2.1,0.3,4.1,1,6c0.7,1.8,1.7,3.5,2.9,4.8c1.3,1.4,2.8,2.5,4.6,3.2c1.8,0.8,3.8,1.2,6,1.2c1.9,0,3.8-0.4,5.6-1.1s3.4-1.8,4.6-3.3
		l0.7,0.6C230.8,30.6,229.2,31.8,227.2,32.6z"/>
	<path class="st0" d="M239.5,32.8V2.4h17.8v0.9h-16.8v13.4h15.8v0.9h-15.8V32h17.5v0.9H239.5z"/>
</g>
<g>
	<g>
		<linearGradient id="SVGID_1_" gradientUnits="userSpaceOnUse" x1="127.2531" y1="44.3209" x2="132.19" y2="74.2508">
			<stop  offset="0" style="stop-color:#F7914D"/>
			<stop  offset="1" style="stop-color:#EF7A28"/>
		</linearGradient>
		<path class="st1" d="M7.3,86.2H2.7V40.9h4.6V86.2z"/>
		<linearGradient id="SVGID_2_" gradientUnits="userSpaceOnUse" x1="127.2531" y1="44.3209" x2="132.19" y2="74.2508">
			<stop  offset="0" style="stop-color:#F7914D"/>
			<stop  offset="1" style="stop-color:#EF7A28"/>
		</linearGradient>
		<path class="st2" d="M53.6,79.4h0.1V40.9h4.6v45.3h-5.8l-26.4-39H26v39h-4.6V40.9h5.8L53.6,79.4z"/>
		<linearGradient id="SVGID_3_" gradientUnits="userSpaceOnUse" x1="127.2531" y1="44.3209" x2="132.19" y2="74.2508">
			<stop  offset="0" style="stop-color:#F7914D"/>
			<stop  offset="1" style="stop-color:#EF7A28"/>
		</linearGradient>
		<path class="st3" d="M94.1,48.2c-1-1.4-2.2-2.5-3.8-3.3s-3.4-1.2-5.6-1.2c-1.1,0-2.2,0.2-3.4,0.5s-2.2,0.9-3.1,1.6
			c-0.9,0.7-1.7,1.6-2.3,2.7c-0.6,1.1-0.9,2.3-0.9,3.8c0,1.5,0.3,2.6,0.8,3.6c0.6,0.9,1.3,1.7,2.2,2.4c0.9,0.7,2,1.2,3.1,1.6
			s2.4,0.9,3.7,1.3c1.6,0.5,3.2,1.1,4.8,1.7c1.6,0.6,3,1.4,4.3,2.3c1.3,1,2.3,2.2,3.1,3.6s1.2,3.3,1.2,5.6c0,2.3-0.4,4.2-1.3,5.9
			c-0.9,1.6-2,3-3.4,4.1c-1.4,1.1-3,1.9-4.7,2.4c-1.8,0.5-3.6,0.8-5.3,0.8c-1.4,0-2.7-0.1-4.1-0.4c-1.4-0.3-2.7-0.7-3.9-1.2
			c-1.2-0.6-2.4-1.3-3.5-2.1c-1.1-0.9-2-1.8-2.8-2.9l4-2.9c1,1.6,2.4,3,4.1,4.1c1.8,1.1,3.9,1.6,6.2,1.6c1.2,0,2.3-0.2,3.5-0.5
			c1.2-0.4,2.3-0.9,3.2-1.7c1-0.7,1.7-1.7,2.4-2.8c0.6-1.1,0.9-2.4,0.9-3.8c0-1.6-0.3-2.9-0.9-3.9c-0.6-1-1.4-1.9-2.5-2.6
			c-1-0.7-2.2-1.3-3.5-1.8c-1.3-0.5-2.7-0.9-4.2-1.4c-1.5-0.5-3-1-4.4-1.6c-1.5-0.6-2.8-1.4-3.9-2.3c-1.2-1-2.1-2.1-2.8-3.6
			c-0.7-1.4-1.1-3.1-1.1-5.2c0-2.2,0.4-4.1,1.3-5.6c0.9-1.6,2-2.9,3.4-3.9c1.4-1,3-1.8,4.7-2.2c1.7-0.5,3.4-0.7,5.1-0.7
			c3.1,0,5.7,0.5,7.9,1.6c2.2,1.1,3.8,2.4,4.9,3.9L94.1,48.2z"/>
		<linearGradient id="SVGID_4_" gradientUnits="userSpaceOnUse" x1="127.2531" y1="44.3209" x2="132.19" y2="74.2508">
			<stop  offset="0" style="stop-color:#F7914D"/>
			<stop  offset="1" style="stop-color:#EF7A28"/>
		</linearGradient>
		<path class="st4" d="M114.4,86.2h-4.6V40.9h4.6V86.2z"/>
		<linearGradient id="SVGID_5_" gradientUnits="userSpaceOnUse" x1="127.2531" y1="44.3209" x2="132.19" y2="74.2508">
			<stop  offset="0" style="stop-color:#F7914D"/>
			<stop  offset="1" style="stop-color:#EF7A28"/>
		</linearGradient>
		<path class="st5" d="M163,49c-1.6-1.7-3.5-3-5.6-3.9c-2.2-0.9-4.7-1.4-7.5-1.4c-2.9,0-5.5,0.5-7.8,1.6c-2.3,1.1-4.3,2.5-5.9,4.3
			c-1.6,1.8-2.9,3.9-3.7,6.3c-0.9,2.4-1.3,4.9-1.3,7.5c0,2.6,0.4,5.2,1.3,7.5c0.9,2.4,2.1,4.5,3.7,6.3s3.6,3.2,5.9,4.3
			s4.9,1.6,7.8,1.6c2.6,0,4.9-0.3,7-0.8c2.1-0.6,3.9-1.3,5.2-2.1V66.5h-10.6v-4.1h15.2v20.5c-2.5,1.5-5.1,2.6-8,3.3
			c-2.9,0.7-5.8,1.1-8.9,1.1c-3.4,0-6.6-0.6-9.5-1.8c-2.9-1.2-5.4-2.8-7.5-5c-2.1-2.1-3.7-4.6-4.9-7.5c-1.2-2.9-1.8-6.1-1.8-9.5
			s0.6-6.6,1.8-9.5c1.2-2.9,2.8-5.4,5-7.5c2.1-2.1,4.6-3.8,7.5-5c2.9-1.2,6-1.8,9.4-1.8c3.6,0,6.8,0.5,9.5,1.6
			c2.7,1.1,5,2.6,6.9,4.5L163,49z"/>
		<linearGradient id="SVGID_6_" gradientUnits="userSpaceOnUse" x1="127.2531" y1="44.3209" x2="132.19" y2="74.2508">
			<stop  offset="0" style="stop-color:#F7914D"/>
			<stop  offset="1" style="stop-color:#EF7A28"/>
		</linearGradient>
		<path class="st6" d="M180.3,40.9h4.6v19.6h24.7V40.9h4.6v45.3h-4.6V64.7h-24.7v21.4h-4.6V40.9z"/>
		<linearGradient id="SVGID_7_" gradientUnits="userSpaceOnUse" x1="127.2531" y1="44.3209" x2="132.19" y2="74.2508">
			<stop  offset="0" style="stop-color:#F7914D"/>
			<stop  offset="1" style="stop-color:#EF7A28"/>
		</linearGradient>
		<path class="st7" d="M243,86.2h-4.6V45h-15.2v-4.1h34.9V45H243V86.2z"/>
	</g>
</g>
</svg>
