<?xml version="1.0" encoding="utf-8"?>
<!-- Generator: Adobe Illustrator 18.1.1, SVG Export Plug-In . SVG Version: 6.00 Build 0)  -->
<svg version="1.1" id="Layer_1" xmlns="http://www.w3.org/2000/svg" xmlns:xlink="http://www.w3.org/1999/xlink" x="0px" y="0px"
	 viewBox="0 0 29 29" enable-background="new 0 0 29 29" xml:space="preserve">
<g>
	<g>
		<path fill="#FFFFFF" d="M1.4,20.1L0,28.3c0,0.1,0,0.3,0.1,0.4c0,0,0,0,0,0c0.1,0.1,0.3,0.2,0.4,0.1l8.1-1.4c0.2,0,0.3-0.2,0.4-0.3
			c0.1-0.2,0-0.3-0.1-0.5l-1.6-1.6l4.3-4.3c0.2-0.2,0.2-0.5,0-0.7l-2.9-2.9C8.5,17,8.2,17,8,17.2l-4.3,4.3l-1.6-1.6
			c-0.1-0.1-0.3-0.2-0.5-0.1C1.5,19.8,1.4,20,1.4,20.1z"/>
	</g>
	<g>
		<path fill="#FFFFFF" d="M27.5,8.7l1.4-8.2c0-0.1,0-0.3-0.1-0.4l0,0C28.6,0,28.4,0,28.3,0l-8.1,1.4c-0.2,0-0.3,0.2-0.4,0.3
			c-0.1,0.2,0,0.3,0.1,0.5l1.6,1.6L17.2,8c-0.2,0.2-0.2,0.5,0,0.7l2.9,2.9c0.2,0.2,0.5,0.2,0.7,0l4.3-4.3l1.6,1.6
			c0.1,0.1,0.3,0.2,0.5,0.1C27.3,9,27.4,8.9,27.5,8.7z"/>
	</g>
	<g>
		<path fill="#FFFFFF" d="M20.1,27.5l8.2,1.4c0.1,0,0.3,0,0.4-0.1l0,0c0.1-0.1,0.2-0.3,0.1-0.4l-1.4-8.1c0-0.2-0.2-0.3-0.3-0.4
			c-0.2-0.1-0.3,0-0.5,0.1l-1.6,1.6l-4.3-4.3c-0.2-0.2-0.5-0.2-0.7,0l-2.9,2.9c-0.2,0.2-0.2,0.5,0,0.7l4.3,4.3l-1.6,1.6
			c-0.1,0.1-0.2,0.3-0.1,0.5C19.8,27.3,20,27.4,20.1,27.5z"/>
	</g>
	<g>
		<path fill="#FFFFFF" d="M8.7,1.4L0.5,0C0.4,0,0.2,0,0.1,0.1c0,0,0,0,0,0C0,0.2,0,0.4,0,0.5l1.4,8.1C1.4,8.8,1.5,9,1.7,9
			C1.9,9.1,2,9,2.2,8.9l1.6-1.6L8,11.6c0.2,0.2,0.5,0.2,0.7,0l2.9-2.9c0.2-0.2,0.2-0.5,0-0.7L7.4,3.7l1.6-1.6C9.1,2,9.1,1.8,9.1,1.7
			C9,1.5,8.9,1.4,8.7,1.4z"/>
	</g>
</g>
</svg>
