<?xml version="1.0" encoding="utf-8"?>
<!-- Generator: Adobe Illustrator 18.1.1, SVG Export Plug-In . SVG Version: 6.00 Build 0)  -->
<svg version="1.1" id="info" xmlns="http://www.w3.org/2000/svg" xmlns:xlink="http://www.w3.org/1999/xlink" x="0px" y="0px"
	 viewBox="0 0 35 35" enable-background="new 0 0 35 35" xml:space="preserve">
<g>
	<path fill="#FFFFFF" d="M17.5,2C26,2,33,9,33,17.5S26,33,17.5,33S2,26,2,17.5S9,2,17.5,2 M17.5,0C7.8,0,0,7.8,0,17.5
		S7.8,35,17.5,35S35,27.2,35,17.5S27.2,0,17.5,0L17.5,0z"/>
	<path fill="#FFFFFF" d="M16.3,9.1c-0.4,0.4-0.6,0.9-0.6,1.4c0,0.5,0.2,1,0.6,1.4c0.4,0.4,0.8,0.6,1.4,0.6c0.5,0,1-0.2,1.4-0.6
		c0.4-0.4,0.6-0.9,0.6-1.4c0-0.5-0.2-1-0.6-1.4c-0.4-0.4-0.8-0.6-1.4-0.6C17.2,8.5,16.7,8.7,16.3,9.1z M18.4,14.3
		c-0.4,0.2-0.7,0.3-1,0.4C17,14.9,16.6,15,16,15.1c-0.5,0.1-1.1,0.2-1.6,0.2v2H16v5.1c0,0.3,0,0.5-0.1,0.6c-0.1,0.1-0.1,0.2-0.2,0.2
		c-0.1,0-0.3,0.1-0.7,0.1h-0.6v2.1H21v-2.1h-0.6c-0.4,0-0.6,0-0.7-0.1c-0.1,0-0.2-0.1-0.2-0.2c0-0.1-0.1-0.3-0.1-0.7v-7.9H18.4z"/>
</g>
</svg>
