<?xml version="1.0" encoding="UTF-8" standalone="no"?><!DOCTYPE svg PUBLIC "-//W3C//DTD SVG 1.1//EN" "http://www.w3.org/Graphics/SVG/1.1/DTD/svg11.dtd"><svg width="100%" height="100%" viewBox="0 0 60 49" version="1.1" xmlns="http://www.w3.org/2000/svg" xmlns:xlink="http://www.w3.org/1999/xlink" xml:space="preserve" xmlns:serif="http://www.serif.com/" style="fill-rule:evenodd;clip-rule:evenodd;stroke-linejoin:round;stroke-miterlimit:1.41421;"><g><path d="M50.7,24.4c0,12.9 -10.6,23.5 -23.5,23.5c-12.9,0 -23.5,-10.7 -23.5,-23.5c0,-12.9 10.6,-23.5 23.5,-23.5c12.9,0 23.5,10.6 23.5,23.5" style="fill:#22428d;fill-rule:nonzero;"/><path d="M27.5,3c0,0.1 -0.1,0.2 -0.2,0.2c-0.1,0 -0.2,-0.1 -0.2,-0.2c0,-0.1 0.1,-0.2 0.2,-0.2c0.1,0 0.2,0.1 0.2,0.2" style="fill:#fff;fill-rule:nonzero;"/><path d="M28.9,5.9c0,0.1 -0.1,0.2 -0.2,0.2c-0.1,0 -0.2,-0.1 -0.2,-0.2c0,-0.1 0.1,-0.2 0.2,-0.2c0.1,0 0.2,0.1 0.2,0.2" style="fill:#fff;fill-rule:nonzero;"/><path d="M32.3,10.7c0,0.1 -0.1,0.2 -0.2,0.2c-0.1,0 -0.2,-0.1 -0.2,-0.2c0,-0.1 0.1,-0.2 0.2,-0.2c0.1,-0.1 0.2,0 0.2,0.2" style="fill:#fff;fill-rule:nonzero;"/><path d="M26.8,7.5c0,0.1 -0.1,0.2 -0.2,0.2c-0.1,0 -0.2,-0.1 -0.2,-0.2c0,-0.1 0.1,-0.2 0.2,-0.2c0.1,0.1 0.2,0.1 0.2,0.2" style="fill:#fff;fill-rule:nonzero;"/><path d="M28.8,8.6c0,0.1 -0.1,0.2 -0.2,0.2c-0.1,0 -0.2,-0.1 -0.2,-0.2c0,-0.1 0.1,-0.2 0.2,-0.2c0.1,0 0.2,0.1 0.2,0.2" style="fill:#fff;fill-rule:nonzero;"/><path d="M26.1,5.6c0,0.1 -0.1,0.2 -0.2,0.2c-0.1,0 -0.2,-0.1 -0.2,-0.2c0,-0.1 0.1,-0.2 0.2,-0.2c0.1,0 0.2,0.1 0.2,0.2" style="fill:#fff;fill-rule:nonzero;"/><path d="M23,7.5c0,0.1 -0.1,0.2 -0.2,0.2c-0.1,0 -0.2,-0.1 -0.2,-0.2c0,-0.1 0.1,-0.2 0.2,-0.2c0.1,0 0.2,0.1 0.2,0.2" style="fill:#fff;fill-rule:nonzero;"/><path d="M23.6,7.9c0,0.1 -0.1,0.2 -0.2,0.2c-0.1,0 -0.2,-0.1 -0.2,-0.2c0,-0.1 0.1,-0.2 0.2,-0.2c0.1,0 0.2,0.1 0.2,0.2" style="fill:#fff;fill-rule:nonzero;"/><path d="M24.1,8.3c0,0.1 -0.1,0.2 -0.2,0.2c-0.1,0 -0.2,-0.1 -0.2,-0.2c0,-0.1 0.1,-0.2 0.2,-0.2c0.2,0 0.2,0.1 0.2,0.2" style="fill:#fff;fill-rule:nonzero;"/><path d="M23.3,9c0,0.1 -0.1,0.2 -0.2,0.2c-0.1,0 -0.2,-0.1 -0.2,-0.2c0,-0.1 0.1,-0.2 0.2,-0.2c0.1,0 0.2,0.1 0.2,0.2" style="fill:#fff;fill-rule:nonzero;"/><path d="M18.9,12.1c0,0.1 -0.1,0.2 -0.2,0.2c-0.1,0 -0.2,-0.1 -0.2,-0.2c0,-0.1 0.1,-0.2 0.2,-0.2c0.1,0 0.2,0.1 0.2,0.2" style="fill:#fff;fill-rule:nonzero;"/><path d="M19.7,13.1c0,0.1 -0.1,0.2 -0.2,0.2c-0.1,0 -0.2,-0.1 -0.2,-0.2c0,-0.1 0.1,-0.2 0.2,-0.2c0.1,0 0.2,0.1 0.2,0.2" style="fill:#fff;fill-rule:nonzero;"/><path d="M19,29.3c0,0.1 -0.1,0.2 -0.2,0.2c-0.1,0 -0.2,-0.1 -0.2,-0.2c0,-0.1 0.1,-0.2 0.2,-0.2c0.1,0 0.2,0.1 0.2,0.2" style="fill:#fff;fill-rule:nonzero;"/><path d="M19.1,33.7c0,0.1 -0.1,0.2 -0.2,0.2c-0.1,0 -0.2,-0.1 -0.2,-0.2c0,-0.1 0.1,-0.2 0.2,-0.2c0.1,0 0.2,0.1 0.2,0.2" style="fill:#fff;fill-rule:nonzero;"/><path d="M16.6,36c0,0.1 -0.1,0.2 -0.2,0.2c-0.1,0 -0.2,-0.1 -0.2,-0.2c0,-0.1 0.1,-0.2 0.2,-0.2c0.1,0 0.2,0.1 0.2,0.2" style="fill:#fff;fill-rule:nonzero;"/><path d="M13.6,36.9c0,0.1 -0.1,0.2 -0.2,0.2c-0.1,0 -0.2,-0.1 -0.2,-0.2c0,-0.1 0.1,-0.2 0.2,-0.2c0.1,0 0.2,0.1 0.2,0.2" style="fill:#fff;fill-rule:nonzero;"/><path d="M13,34.9c0,0.1 -0.1,0.2 -0.2,0.2c-0.1,0 -0.2,-0.1 -0.2,-0.2c0,-0.1 0.1,-0.2 0.2,-0.2c0.1,-0.1 0.2,0 0.2,0.2" style="fill:#fff;fill-rule:nonzero;"/><path d="M12.6,36.2c0,0.1 -0.1,0.2 -0.2,0.2c-0.1,0 -0.2,-0.1 -0.2,-0.2c0,-0.1 0.1,-0.2 0.2,-0.2c0.1,0 0.2,0.1 0.2,0.2" style="fill:#fff;fill-rule:nonzero;"/><path d="M10.3,35.1c0,0.1 -0.1,0.2 -0.2,0.2c-0.1,0 -0.2,-0.1 -0.2,-0.2c0,-0.1 0.1,-0.2 0.2,-0.2c0.2,0 0.2,0.1 0.2,0.2" style="fill:#fff;fill-rule:nonzero;"/><path d="M18.3,38.8c0,0.1 -0.1,0.2 -0.2,0.2c-0.1,0 -0.2,-0.1 -0.2,-0.2c0,-0.1 0.1,-0.2 0.2,-0.2c0.1,0 0.2,0.1 0.2,0.2" style="fill:#fff;fill-rule:nonzero;"/><path d="M20.6,37c0,0.1 -0.1,0.2 -0.2,0.2c-0.1,0 -0.2,-0.1 -0.2,-0.2c0,-0.1 0.1,-0.2 0.2,-0.2c0.1,0 0.2,0.1 0.2,0.2" style="fill:#fff;fill-rule:nonzero;"/><path d="M20.9,39.3c0,0.1 -0.1,0.2 -0.2,0.2c-0.1,0 -0.2,-0.1 -0.2,-0.2c0,-0.1 0.1,-0.2 0.2,-0.2c0.1,0 0.2,0.1 0.2,0.2" style="fill:#fff;fill-rule:nonzero;"/><path d="M30.7,37.1c0,0.1 -0.1,0.2 -0.2,0.2c-0.1,0 -0.2,-0.1 -0.2,-0.2c0,-0.1 0.1,-0.2 0.2,-0.2c0.1,0 0.2,0.1 0.2,0.2" style="fill:#fff;fill-rule:nonzero;"/><path d="M26.1,38.7c0,0.1 -0.1,0.2 -0.2,0.2c-0.1,0 -0.2,-0.1 -0.2,-0.2c0,-0.1 0.1,-0.2 0.2,-0.2c0.2,0 0.2,0.1 0.2,0.2" style="fill:#fff;fill-rule:nonzero;"/><path d="M38.4,41.1c0,0.1 -0.1,0.2 -0.2,0.2c-0.1,0 -0.2,-0.1 -0.2,-0.2c0,-0.1 0.1,-0.2 0.2,-0.2c0.1,0 0.2,0 0.2,0.2" style="fill:#fff;fill-rule:nonzero;"/><path d="M39.4,32c0,0.1 -0.1,0.2 -0.2,0.2c-0.1,0 -0.2,-0.1 -0.2,-0.2c0,-0.1 0.1,-0.2 0.2,-0.2c0.1,0 0.2,0.1 0.2,0.2" style="fill:#fff;fill-rule:nonzero;"/><path d="M37.5,33.3c0,0.1 -0.1,0.2 -0.2,0.2c-0.1,0 -0.2,-0.1 -0.2,-0.2c0,-0.1 0.1,-0.2 0.2,-0.2c0.1,0 0.2,0.1 0.2,0.2" style="fill:#fff;fill-rule:nonzero;"/><path d="M39.4,33.7c0,0.1 -0.1,0.2 -0.2,0.2c-0.1,0 -0.2,-0.1 -0.2,-0.2c0,-0.1 0.1,-0.2 0.2,-0.2c0.1,-0.1 0.2,0 0.2,0.2" style="fill:#fff;fill-rule:nonzero;"/><path d="M37.5,35.9c0,0.1 -0.1,0.2 -0.2,0.2c-0.1,0 -0.2,-0.1 -0.2,-0.2c0,-0.1 0.1,-0.2 0.2,-0.2c0.1,0 0.2,0.1 0.2,0.2" style="fill:#fff;fill-rule:nonzero;"/><path d="M42.3,30.7c0,0.1 -0.1,0.2 -0.2,0.2c-0.1,0 -0.2,-0.1 -0.2,-0.2c0,-0.1 0.1,-0.2 0.2,-0.2c0.1,0 0.2,0.1 0.2,0.2" style="fill:#fff;fill-rule:nonzero;"/><path d="M42.8,31.9c0,0.1 -0.1,0.2 -0.2,0.2c-0.1,0 -0.2,-0.1 -0.2,-0.2c0,-0.1 0.1,-0.2 0.2,-0.2c0.1,0 0.2,0.1 0.2,0.2" style="fill:#fff;fill-rule:nonzero;"/><path d="M46.1,33.3c0,0.1 -0.1,0.2 -0.2,0.2c-0.1,0 -0.2,-0.1 -0.2,-0.2c0,-0.1 0.1,-0.2 0.2,-0.2c0.1,-0.1 0.2,0 0.2,0.2" style="fill:#fff;fill-rule:nonzero;"/><path d="M42.7,35.7c0,0.1 -0.1,0.2 -0.2,0.2c-0.1,0 -0.2,-0.1 -0.2,-0.2c0,-0.1 0.1,-0.2 0.2,-0.2c0.2,0 0.2,0.1 0.2,0.2" style="fill:#fff;fill-rule:nonzero;"/><path d="M44.9,33.7c0,0.1 -0.1,0.2 -0.2,0.2c-0.1,0 -0.2,-0.1 -0.2,-0.2c0,-0.1 0.1,-0.2 0.2,-0.2c0.1,0 0.2,0.1 0.2,0.2" style="fill:#fff;fill-rule:nonzero;"/><path d="M44.5,36.8c0,0.1 -0.1,0.2 -0.2,0.2c-0.1,0 -0.2,-0.1 -0.2,-0.2c0,-0.1 0.1,-0.2 0.2,-0.2c0.1,0 0.2,0.1 0.2,0.2" style="fill:#fff;fill-rule:nonzero;"/><path d="M31.7,5.4c0,-0.1 0.1,-0.2 0.2,-0.2l0.1,-0.6l0.1,0.5c0.1,0 0.2,0.1 0.2,0.2l0.5,0.1l-0.5,0.1c0,0.1 -0.1,0.2 -0.2,0.2l-0.1,0.6l-0.1,-0.5c-0.1,0 -0.2,-0.1 -0.2,-0.2l-0.5,-0.1l0.5,-0.1Z" style="fill:#fff;fill-rule:nonzero;"/><path d="M18.5,41.5c0,-0.1 0.1,-0.2 0.3,-0.2l0.1,-0.5l0.1,0.5c0.1,0 0.2,0.1 0.2,0.2l0.5,0.1l-0.5,0.1c0,0.1 -0.1,0.2 -0.2,0.2l-0.1,0.5l-0.1,-0.5c-0.1,0 -0.2,-0.1 -0.2,-0.2l-0.6,-0.2l0.5,0Z" style="fill:#fff;fill-rule:nonzero;"/><path d="M42.7,36.8c0,-0.1 0.1,-0.2 0.3,-0.2l0.1,-0.5l0.1,0.5c0.1,0 0.2,0.1 0.2,0.3l0.5,0.1l-0.5,0c0,0.1 -0.1,0.2 -0.2,0.2l-0.2,0.5l-0.1,-0.5c-0.1,0 -0.2,-0.1 -0.2,-0.2l-0.5,-0.1l0.5,-0.1Z" style="fill:#fff;fill-rule:nonzero;"/><path d="M44.6,31.6c0,-0.1 0.1,-0.2 0.3,-0.2l0.1,-0.5l0.1,0.5c0.1,0 0.2,0.1 0.2,0.3l0.5,0.1l-0.5,0.1c0,0.1 -0.1,0.2 -0.2,0.2l-0.1,0.4l-0.1,-0.5c-0.1,0 -0.2,-0.1 -0.2,-0.2l-0.5,-0.1l0.4,-0.1Z" style="fill:#fff;fill-rule:nonzero;"/><path d="M20.8,12.5c0,-0.1 0.1,-0.2 0.2,-0.2l0.1,-0.5l0.1,0.5c0.1,0 0.2,0.1 0.2,0.3l0.5,0.1l-0.5,0.1c0,0.1 -0.1,0.2 -0.2,0.2l-0.1,0.5l-0.1,-0.6c-0.1,0 -0.2,-0.1 -0.2,-0.2l-0.5,-0.1l0.5,-0.1Z" style="fill:#fff;fill-rule:nonzero;"/><path d="M19.3,23.4c1.7,3 3.8,5.2 5.4,7.4c1.4,1.9 4.3,2.8 3.3,3.7c-1.1,1 -3.8,-3.4 -3.8,-3.4c-1.8,-2.2 -3.5,-4.5 -5.3,-7.5l0.4,-0.2Z" style="fill:#fff;fill-rule:nonzero;"/><path d="M0.9,31.3c8.4,-5.5 23,-9.1 35.1,-13.8c9.1,-3.6 17.3,-8.2 21.6,-14.5c-11.1,22.6 -42,19.9 -56.1,28.5l-0.6,-0.2Z" style="fill:#ef4229;fill-rule:nonzero;"/><path d="M23.3,25.5l-1.3,-3.1l-0.9,3.1l2.2,0Zm-2.9,-5.4l4.2,0l3,7.6l1,1l-5.5,0l1,-1l-0.4,-0.9l-3,0l-0.3,1.1l0.7,0.9l-2.9,0l1,-1l1.9,-6.7l-0.7,-1Z" style="fill:#fff;fill-rule:nonzero;"/><path d="M42.9,25.5l-1.2,-3.1l-0.9,3.1l2.1,0Zm-3,-5.4l4.4,0l3,7.6l1,1l-5.5,0l1,-1l-0.4,-0.9l-3,0l-0.3,1.1l0.7,0.9l-2.8,0l1,-1l1.9,-6.7l-1,-1Z" style="fill:#fff;fill-rule:nonzero;"/><path d="M14.7,25.5l0,-4.5l-0.9,-0.9l2.9,0l-0.8,0.9l0,6.7l1,1l-3.8,0l-3.3,-5.6l0,4.6l0.8,1l-3,0l1,-1l0,-6.7l-0.9,-0.9l3.8,0l3.2,5.4Z" style="fill:#fff;fill-rule:nonzero;"/><path d="M36.7,22.3l-0.1,-2.7l-0.9,0.6c-1.3,-0.4 -2.7,-0.4 -3.8,0.1c-1,0.5 -2,1.4 -1.9,2.8c0.1,1.4 1.2,1.9 2.1,2.3c1.2,0.6 2.6,0.7 2.5,1.5c0,0.5 -0.8,0.8 -1.4,0.8c-0.6,0 -2.3,-0.2 -3.3,-1.3l0.2,2.8l1,-0.7c1.2,0.4 2.7,0.6 4.1,0.2c1.4,-0.4 2.8,-1.6 2,-3.6c-0.3,-0.9 -1.3,-1.4 -1.8,-1.6c-0.5,-0.2 -2.1,-0.8 -2.5,-1.1c-0.5,-0.3 -0.4,-1.1 0.8,-1.3c1.1,-0.1 2.7,0.8 3,1.2" style="fill:#fff;fill-rule:nonzero;"/><path d="M7.4,44.5c16.8,-17.2 41.9,-25.1 50.2,-41.5c-5,15.9 -31.8,24.7 -50.3,42.3l0.1,-0.8Z" style="fill:#ef4229;fill-rule:nonzero;"/><path d="M18.8,23.5c-0.2,-0.3 -0.4,-0.7 -0.6,-1c-4.5,-8.1 -3.8,-16.3 4.3,-12.7c6.9,3 13.5,11.6 16.1,17.7c1.2,2.8 4.5,13.8 -6.1,9.4l0,-0.1c10,4.1 8.3,-6.3 2.9,-14.3c-3,-4.5 -7,-8.3 -9.5,-10.1c-8.3,-6.1 -13.4,-2.4 -7.5,9.5c0.3,0.5 0.5,1 0.8,1.5l-0.4,0.1Z" style="fill:#fff;fill-rule:nonzero;"/></g></svg>