<?xml version="1.0" encoding="utf-8"?>
<!-- Generator: Adobe Illustrator 18.1.1, SVG Export Plug-In . SVG Version: 6.00 Build 0)  -->
<svg version="1.1" id="exp-curiosity" xmlns="http://www.w3.org/2000/svg" xmlns:xlink="http://www.w3.org/1999/xlink" x="0px"
	 y="0px" viewBox="0 0 260 80" enable-background="new 0 0 260 80" xml:space="preserve">
<g>
	<path fill="#F7CFAA" d="M2.4,32.8V2.4h17.8v0.9H3.3v13.4h15.8v0.9H3.3V32h17.5v0.9H2.4z"/>
	<path fill="#F7CFAA" d="M48.5,32.8L38.3,17.6L28.1,32.8H27l10.8-16L28.1,2.4h1.1l9.2,13.8l9.2-13.8h1.1l-9.7,14.5l10.8,16H48.5z"/>
	<path fill="#F7CFAA" d="M74.6,10c0,1.3-0.2,2.4-0.7,3.4c-0.5,1-1.1,1.8-1.9,2.5c-0.8,0.7-1.7,1.2-2.8,1.5c-1.1,0.3-2.2,0.5-3.4,0.5
		h-7.9v15h-0.9V2.4h8.3c1.1,0,2.2,0.1,3.3,0.4c1.1,0.2,2.1,0.7,3,1.2c0.9,0.6,1.6,1.3,2.2,2.3C74.3,7.3,74.6,8.5,74.6,10z M73.6,10
		c0-1.3-0.2-2.4-0.7-3.2c-0.5-0.9-1.1-1.5-1.9-2.1s-1.6-0.9-2.6-1.1c-1-0.2-1.9-0.3-2.9-0.3h-7.7v13.8h7.9c0.9,0,1.9-0.1,2.8-0.4
		c0.9-0.3,1.8-0.7,2.5-1.2c0.7-0.6,1.3-1.3,1.8-2.2C73.4,12.3,73.6,11.2,73.6,10z"/>
	<path fill="#F7CFAA" d="M82.3,32.8V2.4H100v0.9H83.2v13.4H99v0.9H83.2V32h17.5v0.9H82.3z"/>
	<path fill="#F7CFAA" d="M125.7,32.8l-9.2-15.4h-7.1v15.4h-0.9V2.4h8.4c1.1,0,2.3,0.1,3.4,0.3c1.1,0.2,2.2,0.6,3.1,1.1
		c0.9,0.6,1.6,1.3,2.2,2.3c0.6,1,0.9,2.2,0.9,3.8c0,1.4-0.3,2.6-0.8,3.6c-0.5,0.9-1.2,1.7-2.1,2.3c-0.9,0.6-1.8,1-2.9,1.3
		c-1,0.3-2.1,0.4-3.1,0.4l9.2,15.4H125.7z M125.4,9.9c0-1.3-0.3-2.4-0.8-3.3c-0.5-0.9-1.2-1.6-2-2.1c-0.8-0.5-1.8-0.9-2.9-1.1
		c-1.1-0.2-2.2-0.3-3.4-0.3h-7v13.5h7.4c2.8,0,5-0.6,6.4-1.8C124.7,13.7,125.4,12.1,125.4,9.9z"/>
	<path fill="#F7CFAA" d="M135,32.8V2.4h0.9v30.4H135z"/>
	<path fill="#F7CFAA" d="M146.4,32.8V2.4h17.8v0.9h-16.8v13.4h15.8v0.9h-15.8V32h17.5v0.9H146.4z"/>
	<path fill="#F7CFAA" d="M195.4,32.8L173.6,3.6h-0.1v29.2h-0.9V2.4h1.3l21.9,29.2h0.1V2.4h0.9v30.4H195.4z"/>
	<path fill="#F7CFAA" d="M227.2,32.6c-2,0.8-4,1.1-6,1.1c-2.3,0-4.4-0.4-6.3-1.2c-1.9-0.8-3.5-1.9-4.9-3.3c-1.4-1.4-2.4-3.1-3.2-5.1
		s-1.1-4.1-1.1-6.5c0-2.3,0.4-4.5,1.1-6.4s1.8-3.7,3.2-5.1s3-2.5,4.9-3.3c1.9-0.8,4-1.2,6.3-1.2c1.9,0,3.7,0.3,5.5,1
		c1.8,0.6,3.3,1.6,4.6,2.9l-0.6,0.7c-0.6-0.6-1.3-1.2-2-1.7c-0.8-0.5-1.6-0.9-2.4-1.2c-0.8-0.3-1.7-0.5-2.6-0.7
		c-0.9-0.1-1.7-0.2-2.5-0.2c-2.2,0-4.2,0.4-6,1.2c-1.8,0.8-3.3,1.9-4.6,3.2c-1.3,1.4-2.3,3-3,4.8c-0.7,1.8-1.1,3.8-1.1,6
		c0,2.1,0.3,4.1,1,6c0.7,1.8,1.7,3.5,2.9,4.8c1.3,1.4,2.8,2.5,4.6,3.2c1.8,0.8,3.8,1.2,6,1.2c1.9,0,3.8-0.4,5.6-1.1s3.4-1.8,4.6-3.3
		l0.7,0.6C230.8,30.6,229.2,31.8,227.2,32.6z"/>
	<path fill="#F7CFAA" d="M239.5,32.8V2.4h17.8v0.9h-16.8v13.4h15.8v0.9h-15.8V32h17.5v0.9H239.5z"/>
</g>
<g>
	<g>
		<linearGradient id="SVGID_1_" gradientUnits="userSpaceOnUse" x1="128.6445" y1="42.8525" x2="132.9239" y2="68.7964">
			<stop  offset="0" style="stop-color:#F7914D"/>
			<stop  offset="1" style="stop-color:#EF7A28"/>
		</linearGradient>
		<path fill="url(#SVGID_1_)" d="M33.5,70.8c-0.6,0.9-1.3,1.8-2.2,2.6c-0.9,0.8-1.8,1.5-3,2.1c-1.1,0.6-2.4,1.1-3.7,1.4
			c-1.3,0.4-2.8,0.5-4.4,0.5c-2.7,0-5.1-0.5-7.4-1.4c-2.3-0.9-4.2-2.2-5.9-3.9c-1.6-1.7-2.9-3.6-3.8-5.9c-0.9-2.3-1.4-4.8-1.4-7.5
			s0.5-5.2,1.4-7.5c0.9-2.3,2.2-4.2,3.9-5.9c1.6-1.6,3.6-2.9,5.8-3.9c2.2-0.9,4.7-1.4,7.3-1.4c1.3,0,2.6,0.1,3.8,0.4
			s2.4,0.7,3.5,1.1c1.1,0.5,2.1,1.1,3,1.8c0.9,0.7,1.6,1.5,2.2,2.3l-3,2.2c-0.4-0.6-0.9-1.1-1.5-1.7c-0.6-0.6-1.3-1.1-2.2-1.5
			c-0.8-0.4-1.7-0.8-2.7-1c-1-0.3-2-0.4-3.2-0.4c-2.3,0-4.4,0.4-6.2,1.2c-1.8,0.8-3.4,2-4.6,3.4c-1.3,1.4-2.2,3-2.9,4.9
			c-0.7,1.9-1,3.8-1,5.9c0,2.1,0.3,4,1,5.9c0.7,1.9,1.7,3.5,2.9,4.9c1.3,1.4,2.8,2.5,4.6,3.4c1.8,0.8,3.9,1.2,6.1,1.2
			c2,0,4-0.4,5.8-1.2c1.8-0.8,3.4-2.2,4.6-4L33.5,70.8z"/>
		<linearGradient id="SVGID_2_" gradientUnits="userSpaceOnUse" x1="128.6445" y1="42.8525" x2="132.9239" y2="68.7964">
			<stop  offset="0" style="stop-color:#F7914D"/>
			<stop  offset="1" style="stop-color:#EF7A28"/>
		</linearGradient>
		<path fill="url(#SVGID_2_)" d="M52.3,77.4c-2.7,0-4.9-0.5-6.5-1.4c-1.7-0.9-3.1-2.1-4.1-3.5c-1-1.4-1.7-2.9-2.1-4.6
			c-0.4-1.6-0.6-3.2-0.6-4.7V41.1h3.6v21.8c0,1.4,0.2,2.8,0.5,4.2c0.3,1.3,0.9,2.5,1.6,3.6s1.7,1.9,3,2.5c1.2,0.7,2.8,1,4.5,1
			s3.3-0.3,4.5-1c1.2-0.6,2.2-1.5,3-2.5s1.3-2.2,1.6-3.6c0.3-1.4,0.5-2.7,0.5-4.2V41.1h3.6v22.2c0,1.5-0.2,3-0.6,4.7
			c-0.4,1.7-1.1,3.2-2.1,4.6c-1,1.4-2.4,2.6-4.1,3.5C57.1,76.9,55,77.4,52.3,77.4z"/>
		<linearGradient id="SVGID_3_" gradientUnits="userSpaceOnUse" x1="128.6445" y1="42.8525" x2="132.9239" y2="68.7964">
			<stop  offset="0" style="stop-color:#F7914D"/>
			<stop  offset="1" style="stop-color:#EF7A28"/>
		</linearGradient>
		<path fill="url(#SVGID_3_)" d="M78.6,76.5H75V41.1h10.4c1.7,0,3.3,0.2,4.8,0.5c1.5,0.3,2.8,0.9,3.9,1.6c1.1,0.8,1.9,1.7,2.5,2.9
			c0.6,1.2,0.9,2.7,0.9,4.4c0,1.3-0.2,2.5-0.7,3.5c-0.5,1.1-1.1,2-1.9,2.8c-0.8,0.8-1.8,1.4-2.9,1.9s-2.3,0.8-3.6,0.9l10.4,16.8
			h-4.4L84.6,60h-6V76.5z M78.6,56.8h6.2c2.9,0,5.1-0.5,6.7-1.6c1.6-1.1,2.4-2.6,2.4-4.7c0-1.2-0.2-2.1-0.6-3
			c-0.4-0.8-1-1.4-1.8-1.9c-0.8-0.5-1.7-0.9-2.8-1.1c-1.1-0.2-2.3-0.3-3.6-0.3h-6.4V56.8z"/>
		<linearGradient id="SVGID_4_" gradientUnits="userSpaceOnUse" x1="128.6445" y1="42.8525" x2="132.9239" y2="68.7964">
			<stop  offset="0" style="stop-color:#F7914D"/>
			<stop  offset="1" style="stop-color:#EF7A28"/>
		</linearGradient>
		<path fill="url(#SVGID_4_)" d="M108.8,76.5h-3.6V41.1h3.6V76.5z"/>
		<linearGradient id="SVGID_5_" gradientUnits="userSpaceOnUse" x1="128.6445" y1="42.8525" x2="132.9239" y2="68.7964">
			<stop  offset="0" style="stop-color:#F7914D"/>
			<stop  offset="1" style="stop-color:#EF7A28"/>
		</linearGradient>
		<path fill="url(#SVGID_5_)" d="M153.4,58.8c0,2.7-0.5,5.2-1.4,7.5c-0.9,2.3-2.2,4.2-3.9,5.9s-3.6,2.9-5.8,3.9s-4.7,1.4-7.3,1.4
			s-5.1-0.5-7.3-1.4c-2.3-0.9-4.2-2.2-5.9-3.9c-1.7-1.7-2.9-3.6-3.9-5.9c-0.9-2.3-1.4-4.8-1.4-7.5s0.5-5.2,1.4-7.5
			c0.9-2.3,2.2-4.2,3.9-5.9c1.6-1.6,3.6-2.9,5.9-3.9c2.2-0.9,4.7-1.4,7.3-1.4s5.1,0.5,7.3,1.4c2.2,0.9,4.2,2.2,5.8,3.9
			c1.7,1.7,2.9,3.6,3.9,5.9C152.9,53.6,153.4,56.1,153.4,58.8z M149.6,58.8c0-2.1-0.3-4-1-5.9c-0.7-1.9-1.6-3.5-2.9-4.9
			s-2.8-2.5-4.6-3.4s-3.9-1.2-6.1-1.2s-4.3,0.4-6.1,1.2s-3.4,2-4.6,3.4c-1.3,1.4-2.2,3.1-2.9,4.9c-0.7,1.9-1,3.8-1,5.9s0.3,4,1,5.9
			c0.7,1.9,1.6,3.5,2.9,4.9c1.3,1.4,2.8,2.5,4.6,3.3s3.9,1.2,6.1,1.2s4.3-0.4,6.1-1.2s3.4-1.9,4.6-3.3c1.3-1.4,2.2-3,2.9-4.9
			C149.3,62.9,149.6,60.9,149.6,58.8z"/>
		<linearGradient id="SVGID_6_" gradientUnits="userSpaceOnUse" x1="128.6445" y1="42.8525" x2="132.9239" y2="68.7964">
			<stop  offset="0" style="stop-color:#F7914D"/>
			<stop  offset="1" style="stop-color:#EF7A28"/>
		</linearGradient>
		<path fill="url(#SVGID_6_)" d="M177.4,46.8c-0.8-1.1-1.8-1.9-2.9-2.6c-1.2-0.6-2.7-1-4.4-1c-0.9,0-1.8,0.1-2.6,0.4
			c-0.9,0.3-1.7,0.7-2.5,1.2c-0.7,0.5-1.3,1.2-1.8,2.1s-0.7,1.8-0.7,3s0.2,2.1,0.6,2.8c0.4,0.7,1,1.4,1.7,1.9s1.5,0.9,2.4,1.3
			c0.9,0.3,1.9,0.7,2.9,1c1.2,0.4,2.5,0.8,3.7,1.3c1.2,0.5,2.4,1.1,3.4,1.8c1,0.8,1.8,1.7,2.4,2.9c0.6,1.1,0.9,2.6,0.9,4.4
			s-0.3,3.3-1,4.6s-1.5,2.3-2.6,3.2s-2.3,1.5-3.7,1.8c-1.4,0.4-2.8,0.6-4.2,0.6c-1.1,0-2.1-0.1-3.2-0.3c-1.1-0.2-2.1-0.5-3-1
			c-1-0.4-1.9-1-2.7-1.6c-0.8-0.7-1.6-1.4-2.2-2.3l3.1-2.3c0.8,1.3,1.8,2.3,3.2,3.2c1.4,0.8,3,1.3,4.9,1.3c0.9,0,1.8-0.1,2.8-0.4
			c0.9-0.3,1.8-0.7,2.5-1.3s1.4-1.3,1.9-2.2c0.5-0.8,0.7-1.8,0.7-3c0-1.2-0.2-2.3-0.7-3.1c-0.5-0.8-1.1-1.5-1.9-2
			c-0.8-0.5-1.7-1-2.8-1.4c-1-0.4-2.1-0.7-3.2-1.1c-1.2-0.4-2.3-0.8-3.5-1.2c-1.1-0.5-2.2-1.1-3-1.8c-0.9-0.8-1.6-1.7-2.2-2.8
			c-0.5-1.1-0.8-2.5-0.8-4c0-1.7,0.3-3.2,1-4.4c0.7-1.2,1.6-2.2,2.7-3c1.1-0.8,2.3-1.4,3.7-1.8c1.3-0.4,2.7-0.5,4-0.5
			c2.4,0,4.5,0.4,6.1,1.3c1.7,0.9,3,1.9,3.9,3L177.4,46.8z"/>
		<linearGradient id="SVGID_7_" gradientUnits="userSpaceOnUse" x1="128.6445" y1="42.8525" x2="132.9239" y2="68.7964">
			<stop  offset="0" style="stop-color:#F7914D"/>
			<stop  offset="1" style="stop-color:#EF7A28"/>
		</linearGradient>
		<path fill="url(#SVGID_7_)" d="M191.8,76.5h-3.6V41.1h3.6V76.5z"/>
		<linearGradient id="SVGID_8_" gradientUnits="userSpaceOnUse" x1="128.6445" y1="42.8525" x2="132.9239" y2="68.7964">
			<stop  offset="0" style="stop-color:#F7914D"/>
			<stop  offset="1" style="stop-color:#EF7A28"/>
		</linearGradient>
		<path fill="url(#SVGID_8_)" d="M212.8,76.5h-3.6V44.3h-11.9v-3.2h27.3v3.2h-11.9V76.5z"/>
		<linearGradient id="SVGID_9_" gradientUnits="userSpaceOnUse" x1="128.6445" y1="42.8525" x2="132.9239" y2="68.7964">
			<stop  offset="0" style="stop-color:#F7914D"/>
			<stop  offset="1" style="stop-color:#EF7A28"/>
		</linearGradient>
		<path fill="url(#SVGID_9_)" d="M244.9,76.5h-3.6V61.2L228,41.1h4.5l10.7,17.2l10.8-17.2h4.2l-13.2,20.2V76.5z"/>
	</g>
</g>
</svg>
