<?xml version="1.0" encoding="utf-8"?>
<!-- Generator: Adobe Illustrator 18.1.1, SVG Export Plug-In . SVG Version: 6.00 Build 0)  -->
<svg version="1.1" id="Layer_1" xmlns="http://www.w3.org/2000/svg" xmlns:xlink="http://www.w3.org/1999/xlink" x="0px" y="0px"
	 viewBox="0 0 540 46" enable-background="new 0 0 540 46" xml:space="preserve">
<g>
	<path fill="#F7CEAA" d="M64.2,37.5V8.4h17v0.8H65.1V22h15.1v0.8H65.1v13.8h16.7v0.8H64.2z"/>
	<path fill="#F7CEAA" d="M108.3,37.5L98.6,23l-9.7,14.5h-1.1L98,22.3L88.8,8.4h1.1l8.8,13.1l8.8-13.1h1l-9.2,13.8l10.3,15.2H108.3z"
		/>
	<path fill="#F7CEAA" d="M133.2,15.7c0,1.2-0.2,2.3-0.7,3.3c-0.5,0.9-1.1,1.7-1.8,2.4c-0.8,0.6-1.7,1.1-2.7,1.4
		c-1,0.3-2.1,0.5-3.3,0.5h-7.5v14.3h-0.9V8.4h7.9c1,0,2.1,0.1,3.2,0.3c1.1,0.2,2,0.6,2.9,1.2c0.9,0.5,1.6,1.3,2.1,2.2
		C132.9,13.1,133.2,14.3,133.2,15.7z M132.3,15.7c0-1.2-0.2-2.3-0.7-3.1c-0.5-0.8-1.1-1.5-1.8-2c-0.7-0.5-1.6-0.8-2.5-1.1
		c-0.9-0.2-1.8-0.3-2.7-0.3h-7.4v13.2h7.6c0.9,0,1.8-0.1,2.7-0.4c0.9-0.2,1.7-0.6,2.4-1.2c0.7-0.5,1.3-1.3,1.7-2.1
		C132.1,17.9,132.3,16.9,132.3,15.7z"/>
	<path fill="#F7CEAA" d="M140.6,37.5V8.4h17v0.8h-16.1V22h15.1v0.8h-15.1v13.8h16.7v0.8H140.6z"/>
	<path fill="#F7CEAA" d="M182.1,37.5l-8.8-14.7h-6.8v14.7h-0.9V8.4h8.1c1.1,0,2.2,0.1,3.2,0.3c1.1,0.2,2.1,0.6,2.9,1.1
		s1.6,1.3,2.1,2.2c0.5,0.9,0.8,2.1,0.8,3.6c0,1.4-0.3,2.5-0.8,3.4c-0.5,0.9-1.2,1.6-2,2.2c-0.8,0.6-1.7,1-2.7,1.2
		c-1,0.2-2,0.4-2.9,0.4l8.8,14.7H182.1z M181.9,15.6c0-1.3-0.2-2.3-0.7-3.1c-0.5-0.8-1.1-1.5-2-2c-0.8-0.5-1.7-0.8-2.8-1
		c-1.1-0.2-2.1-0.3-3.2-0.3h-6.7v12.9h7.1c2.7,0,4.7-0.6,6.1-1.7C181.2,19.3,181.9,17.7,181.9,15.6z"/>
	<path fill="#F7CEAA" d="M191.1,37.5V8.4h0.9v29.1H191.1z"/>
	<path fill="#F7CEAA" d="M202,37.5V8.4h17v0.8h-16.1V22H218v0.8h-15.1v13.8h16.7v0.8H202z"/>
	<path fill="#F7CEAA" d="M248.9,37.5L228,9.6h-0.1v27.9H227V8.4h1.3l20.9,27.9h0.1V8.4h0.9v29.1H248.9z"/>
	<path fill="#F7CEAA" d="M279.3,37.3c-1.9,0.7-3.8,1.1-5.7,1.1c-2.2,0-4.2-0.4-6-1.2c-1.8-0.8-3.4-1.8-4.7-3.2
		c-1.3-1.4-2.3-3-3.1-4.9c-0.7-1.9-1.1-3.9-1.1-6.2s0.4-4.3,1.1-6.2c0.7-1.9,1.7-3.5,3.1-4.9c1.3-1.4,2.9-2.4,4.7-3.2
		c1.8-0.8,3.8-1.2,6-1.2c1.8,0,3.6,0.3,5.3,0.9s3.2,1.6,4.4,2.8l-0.6,0.7c-0.6-0.6-1.2-1.1-2-1.6c-0.7-0.5-1.5-0.8-2.3-1.1
		c-0.8-0.3-1.6-0.5-2.4-0.7c-0.8-0.1-1.6-0.2-2.4-0.2c-2.1,0-4,0.4-5.7,1.1s-3.2,1.8-4.4,3.1c-1.2,1.3-2.2,2.9-2.8,4.6
		c-0.7,1.8-1,3.7-1,5.7c0,2,0.3,3.9,1,5.7c0.7,1.8,1.6,3.3,2.8,4.6c1.2,1.3,2.7,2.3,4.4,3.1c1.7,0.8,3.6,1.1,5.7,1.1
		c1.8,0,3.6-0.3,5.4-1c1.8-0.7,3.2-1.7,4.4-3.1L284,34C282.7,35.4,281.2,36.5,279.3,37.3z"/>
	<path fill="#F7CEAA" d="M291,37.5V8.4h17v0.8h-16.1V22h15.1v0.8h-15.1v13.8h16.7v0.8H291z"/>
</g>
<g>
	<g>
		<linearGradient id="SVGID_1_" gradientUnits="userSpaceOnUse" x1="427.9879" y1="9.6273" x2="431.6803" y2="32.0125">
			<stop  offset="0" style="stop-color:#F6904D"/>
			<stop  offset="1" style="stop-color:#EE7A28"/>
		</linearGradient>
		<path fill="url(#SVGID_1_)" d="M345.7,33.7c-0.5,0.8-1.1,1.5-1.9,2.2c-0.7,0.7-1.6,1.3-2.5,1.8c-1,0.5-2,0.9-3.2,1.2
			c-1.2,0.3-2.4,0.5-3.8,0.5c-2.3,0-4.4-0.4-6.4-1.2c-2-0.8-3.6-1.9-5-3.3s-2.5-3.1-3.3-5.1c-0.8-2-1.2-4.1-1.2-6.4s0.4-4.5,1.2-6.4
			c0.8-2,1.9-3.6,3.3-5.1c1.4-1.4,3.1-2.5,5-3.3c1.9-0.8,4-1.2,6.3-1.2c1.1,0,2.2,0.1,3.3,0.3c1.1,0.2,2.1,0.6,3,1
			c0.9,0.4,1.8,0.9,2.6,1.5c0.8,0.6,1.4,1.3,1.9,2l-2.6,1.9c-0.3-0.5-0.7-1-1.3-1.5c-0.5-0.5-1.2-0.9-1.9-1.3
			c-0.7-0.4-1.5-0.7-2.3-0.9c-0.8-0.2-1.8-0.3-2.7-0.3c-2,0-3.8,0.4-5.3,1.1c-1.6,0.7-2.9,1.7-4,2.9c-1.1,1.2-1.9,2.6-2.5,4.2
			c-0.6,1.6-0.9,3.3-0.9,5.1s0.3,3.5,0.9,5.1c0.6,1.6,1.4,3,2.5,4.2s2.4,2.2,4,2.9c1.6,0.7,3.3,1.1,5.3,1.1c1.8,0,3.4-0.4,5-1.1
			c1.6-0.7,2.9-1.9,4-3.4L345.7,33.7z"/>
		<linearGradient id="SVGID_2_" gradientUnits="userSpaceOnUse" x1="427.9879" y1="9.6273" x2="431.6803" y2="32.0125">
			<stop  offset="0" style="stop-color:#F6904D"/>
			<stop  offset="1" style="stop-color:#EE7A28"/>
		</linearGradient>
		<path fill="url(#SVGID_2_)" d="M362,39.4c-2.3,0-4.2-0.4-5.6-1.2c-1.5-0.8-2.6-1.8-3.5-3c-0.9-1.2-1.5-2.5-1.8-3.9s-0.5-2.8-0.5-4
			V8.1h3.1v18.8c0,1.2,0.1,2.4,0.4,3.6c0.3,1.2,0.8,2.2,1.4,3.1c0.6,0.9,1.5,1.6,2.6,2.2c1.1,0.6,2.4,0.8,3.9,0.8s2.9-0.3,3.9-0.8
			c1.1-0.6,1.9-1.3,2.6-2.2c0.6-0.9,1.1-1.9,1.4-3.1c0.3-1.2,0.4-2.4,0.4-3.6V8.1h3.1v19.1c0,1.3-0.2,2.6-0.5,4s-0.9,2.7-1.8,3.9
			c-0.9,1.2-2,2.2-3.5,3C366.1,39,364.3,39.4,362,39.4z"/>
		<linearGradient id="SVGID_3_" gradientUnits="userSpaceOnUse" x1="427.9879" y1="9.6273" x2="431.6803" y2="32.0125">
			<stop  offset="0" style="stop-color:#F6904D"/>
			<stop  offset="1" style="stop-color:#EE7A28"/>
		</linearGradient>
		<path fill="url(#SVGID_3_)" d="M384.7,38.6h-3.1V8.1h9c1.5,0,2.9,0.1,4.2,0.4c1.3,0.3,2.4,0.8,3.3,1.4c0.9,0.6,1.7,1.5,2.2,2.5
			s0.8,2.3,0.8,3.8c0,1.1-0.2,2.1-0.6,3.1c-0.4,0.9-0.9,1.7-1.6,2.4c-0.7,0.7-1.5,1.2-2.5,1.6c-0.9,0.4-2,0.7-3.1,0.8l8.9,14.5h-3.8
			l-8.4-14.2h-5.2V38.6z M384.7,21.7h5.4c2.5,0,4.4-0.5,5.8-1.4c1.3-0.9,2-2.3,2-4.1c0-1-0.2-1.9-0.6-2.5c-0.4-0.7-0.9-1.2-1.5-1.7
			c-0.7-0.4-1.5-0.7-2.4-0.9c-0.9-0.2-2-0.3-3.1-0.3h-5.5V21.7z"/>
		<linearGradient id="SVGID_4_" gradientUnits="userSpaceOnUse" x1="427.9879" y1="9.6273" x2="431.6803" y2="32.0125">
			<stop  offset="0" style="stop-color:#F6904D"/>
			<stop  offset="1" style="stop-color:#EE7A28"/>
		</linearGradient>
		<path fill="url(#SVGID_4_)" d="M410.8,38.6h-3.1V8.1h3.1V38.6z"/>
		<linearGradient id="SVGID_5_" gradientUnits="userSpaceOnUse" x1="427.9879" y1="9.6273" x2="431.6803" y2="32.0125">
			<stop  offset="0" style="stop-color:#F6904D"/>
			<stop  offset="1" style="stop-color:#EE7A28"/>
		</linearGradient>
		<path fill="url(#SVGID_5_)" d="M449.3,23.4c0,2.3-0.4,4.5-1.2,6.4c-0.8,2-1.9,3.6-3.3,5.1c-1.4,1.4-3.1,2.5-5,3.3
			c-1.9,0.8-4,1.2-6.3,1.2c-2.3,0-4.4-0.4-6.3-1.2c-1.9-0.8-3.6-1.9-5-3.3c-1.4-1.4-2.5-3.1-3.3-5.1c-0.8-2-1.2-4.1-1.2-6.4
			s0.4-4.5,1.2-6.4c0.8-2,1.9-3.6,3.3-5.1c1.4-1.4,3.1-2.5,5-3.3c1.9-0.8,4-1.2,6.3-1.2c2.3,0,4.4,0.4,6.3,1.2
			c1.9,0.8,3.6,1.9,5,3.3c1.4,1.4,2.5,3.1,3.3,5.1C448.9,18.9,449.3,21.1,449.3,23.4z M446,23.4c0-1.8-0.3-3.5-0.9-5.1
			c-0.6-1.6-1.4-3-2.5-4.2c-1.1-1.2-2.4-2.2-4-2.9c-1.6-0.7-3.3-1.1-5.3-1.1c-2,0-3.7,0.4-5.3,1.1c-1.6,0.7-2.9,1.7-4,2.9
			c-1.1,1.2-1.9,2.6-2.5,4.2c-0.6,1.6-0.9,3.3-0.9,5.1c0,1.8,0.3,3.5,0.9,5.1c0.6,1.6,1.4,3,2.5,4.2c1.1,1.2,2.4,2.2,4,2.9
			c1.6,0.7,3.3,1.1,5.3,1.1c2,0,3.7-0.4,5.3-1.1c1.6-0.7,2.9-1.7,4-2.9c1.1-1.2,1.9-2.6,2.5-4.2C445.7,26.9,446,25.2,446,23.4z"/>
		<linearGradient id="SVGID_6_" gradientUnits="userSpaceOnUse" x1="427.9879" y1="9.6273" x2="431.6803" y2="32.0125">
			<stop  offset="0" style="stop-color:#F6904D"/>
			<stop  offset="1" style="stop-color:#EE7A28"/>
		</linearGradient>
		<path fill="url(#SVGID_6_)" d="M470,13.1c-0.7-0.9-1.5-1.7-2.5-2.2s-2.3-0.8-3.7-0.8c-0.7,0-1.5,0.1-2.3,0.3
			c-0.8,0.2-1.5,0.6-2.1,1.1c-0.6,0.5-1.1,1.1-1.5,1.8c-0.4,0.7-0.6,1.6-0.6,2.5c0,1,0.2,1.8,0.6,2.4c0.4,0.6,0.9,1.2,1.5,1.6
			c0.6,0.4,1.3,0.8,2.1,1.1c0.8,0.3,1.6,0.6,2.5,0.9c1.1,0.3,2.1,0.7,3.2,1.1c1.1,0.4,2,0.9,2.9,1.6c0.9,0.6,1.6,1.5,2.1,2.5
			c0.5,1,0.8,2.2,0.8,3.8s-0.3,2.8-0.9,3.9c-0.6,1.1-1.3,2-2.3,2.7c-0.9,0.7-2,1.2-3.2,1.6c-1.2,0.3-2.4,0.5-3.6,0.5
			c-0.9,0-1.8-0.1-2.8-0.3c-0.9-0.2-1.8-0.5-2.6-0.8c-0.8-0.4-1.6-0.8-2.3-1.4c-0.7-0.6-1.3-1.2-1.9-2l2.7-2c0.7,1.1,1.6,2,2.8,2.7
			c1.2,0.7,2.6,1.1,4.2,1.1c0.8,0,1.6-0.1,2.4-0.4c0.8-0.2,1.5-0.6,2.2-1.1s1.2-1.1,1.6-1.9s0.6-1.6,0.6-2.6c0-1.1-0.2-1.9-0.6-2.6
			c-0.4-0.7-1-1.3-1.7-1.8s-1.5-0.9-2.4-1.2c-0.9-0.3-1.8-0.6-2.8-0.9c-1-0.3-2-0.7-3-1.1c-1-0.4-1.9-0.9-2.6-1.6
			c-0.8-0.6-1.4-1.4-1.9-2.4s-0.7-2.1-0.7-3.5c0-1.5,0.3-2.7,0.9-3.8c0.6-1.1,1.4-1.9,2.3-2.6c0.9-0.7,2-1.2,3.1-1.5
			c1.1-0.3,2.3-0.5,3.4-0.5c2.1,0,3.8,0.4,5.3,1.1c1.5,0.7,2.6,1.6,3.3,2.6L470,13.1z"/>
		<linearGradient id="SVGID_7_" gradientUnits="userSpaceOnUse" x1="427.9879" y1="9.6273" x2="431.6803" y2="32.0125">
			<stop  offset="0" style="stop-color:#F6904D"/>
			<stop  offset="1" style="stop-color:#EE7A28"/>
		</linearGradient>
		<path fill="url(#SVGID_7_)" d="M482.6,38.6h-3.1V8.1h3.1V38.6z"/>
		<linearGradient id="SVGID_8_" gradientUnits="userSpaceOnUse" x1="427.9879" y1="9.6273" x2="431.6803" y2="32.0125">
			<stop  offset="0" style="stop-color:#F6904D"/>
			<stop  offset="1" style="stop-color:#EE7A28"/>
		</linearGradient>
		<path fill="url(#SVGID_8_)" d="M500.8,38.6h-3.1V10.9h-10.2V8.1H511v2.8h-10.2V38.6z"/>
		<linearGradient id="SVGID_9_" gradientUnits="userSpaceOnUse" x1="427.9879" y1="9.6273" x2="431.6803" y2="32.0125">
			<stop  offset="0" style="stop-color:#F6904D"/>
			<stop  offset="1" style="stop-color:#EE7A28"/>
		</linearGradient>
		<path fill="url(#SVGID_9_)" d="M528.5,38.6h-3.1V25.5L514,8.1h3.9l9.2,14.8l9.3-14.8h3.6l-11.4,17.3V38.6z"/>
	</g>
</g>
<g>
	<path fill="#22428D" d="M43.3,22.3c0,11.2-9.2,20.4-20.4,20.4S2.4,33.5,2.4,22.3c0-11.2,9.2-20.4,20.4-20.4S43.3,11.1,43.3,22.3"/>
	<path fill="#FFFFFF" d="M23.2,3.7c0,0.1-0.1,0.2-0.2,0.2s-0.2-0.1-0.2-0.2c0-0.1,0.1-0.2,0.2-0.2S23.2,3.6,23.2,3.7"/>
	<path fill="#FFFFFF" d="M24.3,6.3c0,0.1-0.1,0.2-0.2,0.2c-0.1,0-0.2-0.1-0.2-0.2c0-0.1,0.1-0.2,0.2-0.2C24.2,6.1,24.3,6.2,24.3,6.3
		"/>
	<path fill="#FFFFFF" d="M27.3,10.4c0,0.1-0.1,0.2-0.2,0.2c-0.1,0-0.2-0.1-0.2-0.2c0-0.1,0.1-0.2,0.2-0.2
		C27.2,10.2,27.3,10.3,27.3,10.4"/>
	<path fill="#FFFFFF" d="M22.5,7.7c0,0.1-0.1,0.2-0.2,0.2c-0.1,0-0.2-0.1-0.2-0.2c0-0.1,0.1-0.2,0.2-0.2C22.4,7.5,22.5,7.6,22.5,7.7
		"/>
	<path fill="#FFFFFF" d="M24.3,8.6c0,0.1-0.1,0.2-0.2,0.2c-0.1,0-0.2-0.1-0.2-0.2c0-0.1,0.1-0.2,0.2-0.2C24.2,8.5,24.3,8.5,24.3,8.6
		"/>
	<path fill="#FFFFFF" d="M22,6c0,0.1-0.1,0.2-0.2,0.2c-0.1,0-0.2-0.1-0.2-0.2c0-0.1,0.1-0.2,0.2-0.2C21.9,5.8,22,5.9,22,6"/>
	<path fill="#FFFFFF" d="M19.2,7.6c0,0.1-0.1,0.2-0.2,0.2c-0.1,0-0.2-0.1-0.2-0.2c0-0.1,0.1-0.2,0.2-0.2C19.2,7.5,19.2,7.5,19.2,7.6
		"/>
	<path fill="#FFFFFF" d="M19.7,8c0,0.1-0.1,0.2-0.2,0.2c-0.1,0-0.2-0.1-0.2-0.2c0-0.1,0.1-0.2,0.2-0.2C19.6,7.8,19.7,7.9,19.7,8"/>
	<path fill="#FFFFFF" d="M20.2,8.3c0,0.1-0.1,0.2-0.2,0.2c-0.1,0-0.2-0.1-0.2-0.2c0-0.1,0.1-0.2,0.2-0.2C20.1,8.1,20.2,8.2,20.2,8.3
		"/>
	<path fill="#FFFFFF" d="M19.5,8.9c0,0.1-0.1,0.2-0.2,0.2c-0.1,0-0.2-0.1-0.2-0.2c0-0.1,0.1-0.2,0.2-0.2C19.4,8.8,19.5,8.8,19.5,8.9
		"/>
	<path fill="#FFFFFF" d="M15.6,11.7c0,0.1-0.1,0.2-0.2,0.2c-0.1,0-0.2-0.1-0.2-0.2c0-0.1,0.1-0.2,0.2-0.2
		C15.5,11.5,15.6,11.6,15.6,11.7"/>
	<path fill="#FFFFFF" d="M16.3,12.5c0,0.1-0.1,0.2-0.2,0.2c-0.1,0-0.2-0.1-0.2-0.2c0-0.1,0.1-0.2,0.2-0.2
		C16.2,12.4,16.3,12.4,16.3,12.5"/>
	<path fill="#FFFFFF" d="M15.8,26.6c0,0.1-0.1,0.2-0.2,0.2c-0.1,0-0.2-0.1-0.2-0.2c0-0.1,0.1-0.2,0.2-0.2
		C15.7,26.4,15.8,26.5,15.8,26.6"/>
	<path fill="#FFFFFF" d="M15.9,30.5c0,0.1-0.1,0.2-0.2,0.2c-0.1,0-0.2-0.1-0.2-0.2c0-0.1,0.1-0.2,0.2-0.2
		C15.8,30.2,15.9,30.3,15.9,30.5"/>
	<path fill="#FFFFFF" d="M13.7,32.4c0,0.1-0.1,0.2-0.2,0.2c-0.1,0-0.2-0.1-0.2-0.2c0-0.1,0.1-0.2,0.2-0.2
		C13.6,32.3,13.7,32.3,13.7,32.4"/>
	<path fill="#FFFFFF" d="M11,33.2c0,0.1-0.1,0.2-0.2,0.2c-0.1,0-0.2-0.1-0.2-0.2c0-0.1,0.1-0.2,0.2-0.2C10.9,33,11,33.1,11,33.2"/>
	<path fill="#FFFFFF" d="M10.5,31.5c0,0.1-0.1,0.2-0.2,0.2c-0.1,0-0.2-0.1-0.2-0.2c0-0.1,0.1-0.2,0.2-0.2
		C10.4,31.2,10.5,31.3,10.5,31.5"/>
	<path fill="#FFFFFF" d="M10.2,32.6c0,0.1-0.1,0.2-0.2,0.2c-0.1,0-0.2-0.1-0.2-0.2c0-0.1,0.1-0.2,0.2-0.2
		C10.1,32.4,10.2,32.5,10.2,32.6"/>
	<path fill="#FFFFFF" d="M8.2,31.6c0,0.1-0.1,0.2-0.2,0.2c-0.1,0-0.2-0.1-0.2-0.2c0-0.1,0.1-0.2,0.2-0.2C8.1,31.5,8.2,31.6,8.2,31.6
		"/>
	<path fill="#FFFFFF" d="M15.1,34.8c0,0.1-0.1,0.2-0.2,0.2c-0.1,0-0.2-0.1-0.2-0.2c0-0.1,0.1-0.2,0.2-0.2
		C15,34.7,15.1,34.8,15.1,34.8"/>
	<path fill="#FFFFFF" d="M17.2,33.3c0,0.1-0.1,0.2-0.2,0.2c-0.1,0-0.2-0.1-0.2-0.2c0-0.1,0.1-0.2,0.2-0.2
		C17.1,33.1,17.2,33.2,17.2,33.3"/>
	<path fill="#FFFFFF" d="M17.4,35.3c0,0.1-0.1,0.2-0.2,0.2c-0.1,0-0.2-0.1-0.2-0.2c0-0.1,0.1-0.2,0.2-0.2
		C17.3,35.1,17.4,35.2,17.4,35.3"/>
	<path fill="#FFFFFF" d="M25.9,33.4c0,0.1-0.1,0.2-0.2,0.2s-0.2-0.1-0.2-0.2c0-0.1,0.1-0.2,0.2-0.2S25.9,33.3,25.9,33.4"/>
	<path fill="#FFFFFF" d="M22,34.8c0,0.1-0.1,0.2-0.2,0.2c-0.1,0-0.2-0.1-0.2-0.2c0-0.1,0.1-0.2,0.2-0.2C21.9,34.7,22,34.7,22,34.8"
		/>
	<path fill="#FFFFFF" d="M32.6,36.8c0,0.1-0.1,0.2-0.2,0.2c-0.1,0-0.2-0.1-0.2-0.2c0-0.1,0.1-0.2,0.2-0.2
		C32.6,36.7,32.6,36.8,32.6,36.8"/>
	<path fill="#FFFFFF" d="M33.5,29c0,0.1-0.1,0.2-0.2,0.2c-0.1,0-0.2-0.1-0.2-0.2c0-0.1,0.1-0.2,0.2-0.2C33.4,28.8,33.5,28.9,33.5,29
		"/>
	<path fill="#FFFFFF" d="M31.9,30.1c0,0.1-0.1,0.2-0.2,0.2s-0.2-0.1-0.2-0.2c0-0.1,0.1-0.2,0.2-0.2S31.9,30,31.9,30.1"/>
	<path fill="#FFFFFF" d="M33.5,30.4c0,0.1-0.1,0.2-0.2,0.2c-0.1,0-0.2-0.1-0.2-0.2c0-0.1,0.1-0.2,0.2-0.2
		C33.4,30.2,33.5,30.3,33.5,30.4"/>
	<path fill="#FFFFFF" d="M31.9,32.4c0,0.1-0.1,0.2-0.2,0.2s-0.2-0.1-0.2-0.2c0-0.1,0.1-0.2,0.2-0.2S31.9,32.3,31.9,32.4"/>
	<path fill="#FFFFFF" d="M36,27.9c0,0.1-0.1,0.2-0.2,0.2c-0.1,0-0.2-0.1-0.2-0.2c0-0.1,0.1-0.2,0.2-0.2C36,27.7,36,27.8,36,27.9"/>
	<path fill="#FFFFFF" d="M36.4,28.9c0,0.1-0.1,0.2-0.2,0.2c-0.1,0-0.2-0.1-0.2-0.2c0-0.1,0.1-0.2,0.2-0.2
		C36.3,28.7,36.4,28.8,36.4,28.9"/>
	<path fill="#FFFFFF" d="M39.3,30.1c0,0.1-0.1,0.2-0.2,0.2c-0.1,0-0.2-0.1-0.2-0.2c0-0.1,0.1-0.2,0.2-0.2
		C39.2,29.9,39.3,30,39.3,30.1"/>
	<path fill="#FFFFFF" d="M36.4,32.2c0,0.1-0.1,0.2-0.2,0.2c-0.1,0-0.2-0.1-0.2-0.2c0-0.1,0.1-0.2,0.2-0.2
		C36.3,32,36.4,32.1,36.4,32.2"/>
	<path fill="#FFFFFF" d="M38.2,30.5c0,0.1-0.1,0.2-0.2,0.2c-0.1,0-0.2-0.1-0.2-0.2c0-0.1,0.1-0.2,0.2-0.2
		C38.2,30.3,38.2,30.4,38.2,30.5"/>
	<path fill="#FFFFFF" d="M37.9,33.2c0,0.1-0.1,0.2-0.2,0.2c-0.1,0-0.2-0.1-0.2-0.2c0-0.1,0.1-0.2,0.2-0.2
		C37.8,33,37.9,33.1,37.9,33.2"/>
	<path fill="#FFFFFF" d="M26.7,5.8c0-0.1,0.1-0.2,0.2-0.2L27,5.1l0.1,0.4c0.1,0,0.2,0.1,0.2,0.2l0.4,0.1l-0.4,0.1
		c0,0.1-0.1,0.2-0.2,0.2L27,6.6l-0.1-0.5c-0.1,0-0.2-0.1-0.2-0.2l-0.4-0.1L26.7,5.8z"/>
	<path fill="#FFFFFF" d="M15.3,37.2c0-0.1,0.1-0.2,0.2-0.2l0.1-0.4l0.1,0.4c0.1,0,0.2,0.1,0.2,0.2l0.4,0.1l-0.4,0.1
		c0,0.1-0.1,0.2-0.2,0.2L15.5,38l-0.1-0.5c-0.1,0-0.2-0.1-0.2-0.2l-0.4-0.1L15.3,37.2z"/>
	<path fill="#FFFFFF" d="M36.4,33.1c0-0.1,0.1-0.2,0.2-0.2l0.1-0.4l0.1,0.4c0.1,0,0.2,0.1,0.2,0.2l0.4,0.1l-0.4,0.1
		c0,0.1-0.1,0.2-0.2,0.2L36.6,34l-0.1-0.5c-0.1,0-0.2-0.1-0.2-0.2l-0.4-0.1L36.4,33.1z"/>
	<path fill="#FFFFFF" d="M38,28.6c0-0.1,0.1-0.2,0.2-0.2l0.1-0.4l0.1,0.4c0.1,0,0.2,0.1,0.2,0.2l0.4,0.1l-0.4,0.1
		c0,0.1-0.1,0.2-0.2,0.2l-0.1,0.4L38.2,29c-0.1,0-0.2-0.1-0.2-0.2l-0.4-0.1L38,28.6z"/>
	<path fill="#FFFFFF" d="M17.3,12c0-0.1,0.1-0.2,0.2-0.2l0.1-0.4l0.1,0.4c0.1,0,0.2,0.1,0.2,0.2l0.4,0.1l-0.4,0.1
		c0,0.1-0.1,0.2-0.2,0.2l-0.1,0.5l-0.1-0.5c-0.1,0-0.2-0.1-0.2-0.2L16.9,12L17.3,12z"/>
	<path fill="#FFFFFF" d="M16,21.5c1.5,2.6,3.3,4.6,4.7,6.4c1.3,1.6,3.7,2.4,2.8,3.2c-1,0.9-3.3-3-3.3-3c-1.6-1.9-3.1-3.9-4.6-6.5
		L16,21.5z"/>
	<path fill="#EF4229" d="M0,28.4c7.3-4.8,20-7.9,30.5-12c8-3.2,15-7.1,18.9-12.6C39.7,23.4,12.8,21.1,0.5,28.6L0,28.4z"/>
	<path fill="#FFFFFF" d="M19.4,23.3l-1.1-2.7l-0.8,2.7H19.4z M17,18.6h3.7l2.6,6.6l0.9,0.9h-4.7l0.9-0.9l-0.3-0.8h-2.6L17,25.3
		l0.6,0.8h-2.5l0.9-0.9l1.7-5.8L17,18.6z"/>
	<path fill="#FFFFFF" d="M36.5,23.3l-1.1-2.7l-0.8,2.7H36.5z M33.9,18.6h3.8l2.6,6.6l0.9,0.9h-4.8l0.9-0.9L37,24.4h-2.6l-0.3,0.9
		l0.6,0.8h-2.5l0.9-0.9l1.7-5.8L33.9,18.6z"/>
	<polygon fill="#FFFFFF" points="12,23.3 12,19.4 11.2,18.6 13.8,18.6 13,19.4 13,25.2 13.9,26.1 10.6,26.1 7.7,21.3 7.7,25.2 
		8.4,26.1 5.8,26.1 6.7,25.2 6.7,19.4 5.9,18.6 9.2,18.6 	"/>
	<path fill="#FFFFFF" d="M31.1,20.5l-0.1-2.3l-0.8,0.5c-1.1-0.4-2.4-0.4-3.3,0.1c-0.8,0.4-1.7,1.2-1.6,2.4c0.1,1.2,1,1.7,1.9,2
		c1.1,0.5,2.2,0.6,2.2,1.3c0,0.4-0.7,0.7-1.2,0.7c-0.5,0-2-0.1-2.9-1.1l0.2,2.4l0.9-0.6c1.1,0.4,2.3,0.5,3.5,0.1
		c1.2-0.4,2.4-1.4,1.7-3.1c-0.3-0.7-1.1-1.2-1.6-1.4c-0.4-0.2-1.8-0.7-2.2-0.9c-0.4-0.2-0.4-1,0.7-1.1
		C29.5,19.4,30.8,20.2,31.1,20.5"/>
	<path fill="#EF4229" d="M5.6,39.8C20.3,24.9,42.1,18,49.4,3.7C45,17.6,21.7,25.2,5.6,40.5L5.6,39.8z"/>
	<path fill="#FFFFFF" d="M15.6,21.6c-0.2-0.3-0.3-0.6-0.5-0.9c-3.9-7-3.3-14.2,3.7-11.1c6,2.6,11.7,10.1,14,15.4
		c1.1,2.4,3.9,12-5.3,8.2l0-0.1c8.7,3.6,7.2-5.5,2.5-12.5c-2.6-3.9-6.1-7.2-8.2-8.8c-7.2-5.3-11.6-2-6.6,8.3
		c0.2,0.5,0.5,0.9,0.7,1.3L15.6,21.6z"/>
</g>
</svg>
