<?xml version="1.0" encoding="utf-8"?>
<!-- Generator: Adobe Illustrator 18.1.1, SVG Export Plug-In . SVG Version: 6.00 Build 0)  -->
<svg version="1.1" id="Layer_1" xmlns="http://www.w3.org/2000/svg" xmlns:xlink="http://www.w3.org/1999/xlink" x="0px" y="0px"
	 viewBox="0 0 252.7 48.5" enable-background="new 0 0 252.7 48.5" xml:space="preserve">
<g>
	<path fill="#22428D" d="M50.7,24.4c0,12.9-10.6,23.5-23.5,23.5S3.7,37.2,3.7,24.4c0-12.9,10.6-23.5,23.5-23.5S50.7,11.5,50.7,24.4"
		/>
	<path fill="#FFFFFF" d="M27.5,3c0,0.1-0.1,0.2-0.2,0.2c-0.1,0-0.2-0.1-0.2-0.2c0-0.1,0.1-0.2,0.2-0.2C27.4,2.8,27.5,2.9,27.5,3"/>
	<path fill="#FFFFFF" d="M28.9,5.9c0,0.1-0.1,0.2-0.2,0.2c-0.1,0-0.2-0.1-0.2-0.2c0-0.1,0.1-0.2,0.2-0.2C28.8,5.7,28.9,5.8,28.9,5.9
		"/>
	<path fill="#FFFFFF" d="M32.3,10.7c0,0.1-0.1,0.2-0.2,0.2c-0.1,0-0.2-0.1-0.2-0.2c0-0.1,0.1-0.2,0.2-0.2
		C32.2,10.4,32.3,10.5,32.3,10.7"/>
	<path fill="#FFFFFF" d="M26.8,7.5c0,0.1-0.1,0.2-0.2,0.2c-0.1,0-0.2-0.1-0.2-0.2c0-0.1,0.1-0.2,0.2-0.2C26.7,7.4,26.8,7.4,26.8,7.5
		"/>
	<path fill="#FFFFFF" d="M28.8,8.6c0,0.1-0.1,0.2-0.2,0.2c-0.1,0-0.2-0.1-0.2-0.2c0-0.1,0.1-0.2,0.2-0.2C28.7,8.4,28.8,8.5,28.8,8.6
		"/>
	<path fill="#FFFFFF" d="M26.1,5.6c0,0.1-0.1,0.2-0.2,0.2c-0.1,0-0.2-0.1-0.2-0.2c0-0.1,0.1-0.2,0.2-0.2C26,5.4,26.1,5.5,26.1,5.6"
		/>
	<path fill="#FFFFFF" d="M23,7.5c0,0.1-0.1,0.2-0.2,0.2c-0.1,0-0.2-0.1-0.2-0.2c0-0.1,0.1-0.2,0.2-0.2C22.9,7.3,23,7.4,23,7.5"/>
	<path fill="#FFFFFF" d="M23.6,7.9c0,0.1-0.1,0.2-0.2,0.2c-0.1,0-0.2-0.1-0.2-0.2c0-0.1,0.1-0.2,0.2-0.2C23.5,7.7,23.6,7.8,23.6,7.9
		"/>
	<path fill="#FFFFFF" d="M24.1,8.3c0,0.1-0.1,0.2-0.2,0.2c-0.1,0-0.2-0.1-0.2-0.2c0-0.1,0.1-0.2,0.2-0.2C24.1,8.1,24.1,8.2,24.1,8.3
		"/>
	<path fill="#FFFFFF" d="M23.3,9c0,0.1-0.1,0.2-0.2,0.2c-0.1,0-0.2-0.1-0.2-0.2c0-0.1,0.1-0.2,0.2-0.2C23.2,8.8,23.3,8.9,23.3,9"/>
	<path fill="#FFFFFF" d="M18.9,12.1c0,0.1-0.1,0.2-0.2,0.2c-0.1,0-0.2-0.1-0.2-0.2c0-0.1,0.1-0.2,0.2-0.2
		C18.8,11.9,18.9,12,18.9,12.1"/>
	<path fill="#FFFFFF" d="M19.7,13.1c0,0.1-0.1,0.2-0.2,0.2c-0.1,0-0.2-0.1-0.2-0.2c0-0.1,0.1-0.2,0.2-0.2
		C19.6,12.9,19.7,13,19.7,13.1"/>
	<path fill="#FFFFFF" d="M19,29.3c0,0.1-0.1,0.2-0.2,0.2c-0.1,0-0.2-0.1-0.2-0.2c0-0.1,0.1-0.2,0.2-0.2C18.9,29.1,19,29.2,19,29.3"
		/>
	<path fill="#FFFFFF" d="M19.1,33.7c0,0.1-0.1,0.2-0.2,0.2c-0.1,0-0.2-0.1-0.2-0.2c0-0.1,0.1-0.2,0.2-0.2
		C19,33.5,19.1,33.6,19.1,33.7"/>
	<path fill="#FFFFFF" d="M16.6,36c0,0.1-0.1,0.2-0.2,0.2c-0.1,0-0.2-0.1-0.2-0.2c0-0.1,0.1-0.2,0.2-0.2C16.5,35.8,16.6,35.9,16.6,36
		"/>
	<path fill="#FFFFFF" d="M13.6,36.9c0,0.1-0.1,0.2-0.2,0.2c-0.1,0-0.2-0.1-0.2-0.2c0-0.1,0.1-0.2,0.2-0.2
		C13.5,36.7,13.6,36.8,13.6,36.9"/>
	<path fill="#FFFFFF" d="M13,34.9c0,0.1-0.1,0.2-0.2,0.2c-0.1,0-0.2-0.1-0.2-0.2c0-0.1,0.1-0.2,0.2-0.2C12.9,34.6,13,34.7,13,34.9"
		/>
	<path fill="#FFFFFF" d="M12.6,36.2c0,0.1-0.1,0.2-0.2,0.2c-0.1,0-0.2-0.1-0.2-0.2c0-0.1,0.1-0.2,0.2-0.2
		C12.5,36,12.6,36.1,12.6,36.2"/>
	<path fill="#FFFFFF" d="M10.3,35.1c0,0.1-0.1,0.2-0.2,0.2c-0.1,0-0.2-0.1-0.2-0.2c0-0.1,0.1-0.2,0.2-0.2
		C10.3,34.9,10.3,35,10.3,35.1"/>
	<path fill="#FFFFFF" d="M18.3,38.8c0,0.1-0.1,0.2-0.2,0.2c-0.1,0-0.2-0.1-0.2-0.2c0-0.1,0.1-0.2,0.2-0.2
		C18.2,38.6,18.3,38.7,18.3,38.8"/>
	<path fill="#FFFFFF" d="M20.6,37c0,0.1-0.1,0.2-0.2,0.2c-0.1,0-0.2-0.1-0.2-0.2c0-0.1,0.1-0.2,0.2-0.2C20.5,36.8,20.6,36.9,20.6,37
		"/>
	<path fill="#FFFFFF" d="M20.9,39.3c0,0.1-0.1,0.2-0.2,0.2c-0.1,0-0.2-0.1-0.2-0.2c0-0.1,0.1-0.2,0.2-0.2
		C20.8,39.1,20.9,39.2,20.9,39.3"/>
	<path fill="#FFFFFF" d="M30.7,37.1c0,0.1-0.1,0.2-0.2,0.2c-0.1,0-0.2-0.1-0.2-0.2c0-0.1,0.1-0.2,0.2-0.2
		C30.6,36.9,30.7,37,30.7,37.1"/>
	<path fill="#FFFFFF" d="M26.1,38.7c0,0.1-0.1,0.2-0.2,0.2c-0.1,0-0.2-0.1-0.2-0.2c0-0.1,0.1-0.2,0.2-0.2
		C26.1,38.5,26.1,38.6,26.1,38.7"/>
	<path fill="#FFFFFF" d="M38.4,41.1c0,0.1-0.1,0.2-0.2,0.2c-0.1,0-0.2-0.1-0.2-0.2c0-0.1,0.1-0.2,0.2-0.2
		C38.3,40.9,38.4,40.9,38.4,41.1"/>
	<path fill="#FFFFFF" d="M39.4,32c0,0.1-0.1,0.2-0.2,0.2c-0.1,0-0.2-0.1-0.2-0.2c0-0.1,0.1-0.2,0.2-0.2C39.3,31.8,39.4,31.9,39.4,32
		"/>
	<path fill="#FFFFFF" d="M37.5,33.3c0,0.1-0.1,0.2-0.2,0.2c-0.1,0-0.2-0.1-0.2-0.2c0-0.1,0.1-0.2,0.2-0.2
		C37.4,33.1,37.5,33.2,37.5,33.3"/>
	<path fill="#FFFFFF" d="M39.4,33.7c0,0.1-0.1,0.2-0.2,0.2c-0.1,0-0.2-0.1-0.2-0.2c0-0.1,0.1-0.2,0.2-0.2
		C39.3,33.4,39.4,33.5,39.4,33.7"/>
	<path fill="#FFFFFF" d="M37.5,35.9c0,0.1-0.1,0.2-0.2,0.2c-0.1,0-0.2-0.1-0.2-0.2c0-0.1,0.1-0.2,0.2-0.2
		C37.4,35.7,37.5,35.8,37.5,35.9"/>
	<path fill="#FFFFFF" d="M42.3,30.7c0,0.1-0.1,0.2-0.2,0.2c-0.1,0-0.2-0.1-0.2-0.2c0-0.1,0.1-0.2,0.2-0.2
		C42.2,30.5,42.3,30.6,42.3,30.7"/>
	<path fill="#FFFFFF" d="M42.8,31.9c0,0.1-0.1,0.2-0.2,0.2c-0.1,0-0.2-0.1-0.2-0.2c0-0.1,0.1-0.2,0.2-0.2
		C42.7,31.7,42.8,31.8,42.8,31.9"/>
	<path fill="#FFFFFF" d="M46.1,33.3c0,0.1-0.1,0.2-0.2,0.2c-0.1,0-0.2-0.1-0.2-0.2c0-0.1,0.1-0.2,0.2-0.2C46,33,46.1,33.1,46.1,33.3
		"/>
	<path fill="#FFFFFF" d="M42.7,35.7c0,0.1-0.1,0.2-0.2,0.2c-0.1,0-0.2-0.1-0.2-0.2c0-0.1,0.1-0.2,0.2-0.2
		C42.7,35.5,42.7,35.6,42.7,35.7"/>
	<path fill="#FFFFFF" d="M44.9,33.7c0,0.1-0.1,0.2-0.2,0.2c-0.1,0-0.2-0.1-0.2-0.2c0-0.1,0.1-0.2,0.2-0.2
		C44.8,33.5,44.9,33.6,44.9,33.7"/>
	<path fill="#FFFFFF" d="M44.5,36.8c0,0.1-0.1,0.2-0.2,0.2c-0.1,0-0.2-0.1-0.2-0.2c0-0.1,0.1-0.2,0.2-0.2
		C44.4,36.6,44.5,36.7,44.5,36.8"/>
	<path fill="#FFFFFF" d="M31.7,5.4c0-0.1,0.1-0.2,0.2-0.2L32,4.6l0.1,0.5c0.1,0,0.2,0.1,0.2,0.2l0.5,0.1l-0.5,0.1
		c0,0.1-0.1,0.2-0.2,0.2L32,6.3l-0.1-0.5c-0.1,0-0.2-0.1-0.2-0.2l-0.5-0.1L31.7,5.4z"/>
	<path fill="#FFFFFF" d="M18.5,41.5c0-0.1,0.1-0.2,0.3-0.2l0.1-0.5l0.1,0.5c0.1,0,0.2,0.1,0.2,0.2l0.5,0.1l-0.5,0.1
		c0,0.1-0.1,0.2-0.2,0.2l-0.1,0.5l-0.1-0.5c-0.1,0-0.2-0.1-0.2-0.2L18,41.5L18.5,41.5z"/>
	<path fill="#FFFFFF" d="M42.7,36.8c0-0.1,0.1-0.2,0.3-0.2l0.1-0.5l0.1,0.5c0.1,0,0.2,0.1,0.2,0.3l0.5,0.1L43.4,37
		c0,0.1-0.1,0.2-0.2,0.2L43,37.7l-0.1-0.5c-0.1,0-0.2-0.1-0.2-0.2l-0.5-0.1L42.7,36.8z"/>
	<path fill="#FFFFFF" d="M44.6,31.6c0-0.1,0.1-0.2,0.3-0.2l0.1-0.5l0.1,0.5c0.1,0,0.2,0.1,0.2,0.3l0.5,0.1l-0.5,0.1
		c0,0.1-0.1,0.2-0.2,0.2L45,32.5L44.9,32c-0.1,0-0.2-0.1-0.2-0.2l-0.5-0.1L44.6,31.6z"/>
	<path fill="#FFFFFF" d="M20.8,12.5c0-0.1,0.1-0.2,0.2-0.2l0.1-0.5l0.1,0.5c0.1,0,0.2,0.1,0.2,0.3l0.5,0.1l-0.5,0.1
		c0,0.1-0.1,0.2-0.2,0.2l-0.1,0.5L21,12.9c-0.1,0-0.2-0.1-0.2-0.2l-0.5-0.1L20.8,12.5z"/>
	<path fill="#FFFFFF" d="M19.3,23.4c1.7,3,3.8,5.2,5.4,7.4c1.4,1.9,4.3,2.8,3.3,3.7c-1.1,1-3.8-3.4-3.8-3.4
		c-1.8-2.2-3.5-4.5-5.3-7.5L19.3,23.4z"/>
	<path fill="#EF4229" d="M0.9,31.3c8.4-5.5,23-9.1,35.1-13.8C45.1,13.9,53.3,9.3,57.6,3c-11.1,22.6-42,19.9-56.1,28.5L0.9,31.3z"/>
	<path fill="#FFFFFF" d="M23.3,25.5L22,22.4l-0.9,3.1H23.3z M20.4,20.1h4.2l3,7.6l1,1h-5.5l1-1l-0.4-0.9h-3l-0.3,1.1l0.7,0.9h-2.9
		l1-1l1.9-6.7L20.4,20.1z"/>
	<path fill="#FFFFFF" d="M42.9,25.5l-1.2-3.1l-0.9,3.1H42.9z M39.9,20.1h4.4l3,7.6l1,1h-5.5l1-1l-0.4-0.9h-3l-0.3,1.1l0.7,0.9H38
		l1-1l1.9-6.7L39.9,20.1z"/>
	<polygon fill="#FFFFFF" points="14.7,25.5 14.7,21 13.8,20.1 16.7,20.1 15.9,21 15.9,27.7 16.9,28.7 13.1,28.7 9.8,23.1 9.8,27.7 
		10.6,28.7 7.6,28.7 8.6,27.7 8.6,21 7.7,20.1 11.5,20.1 	"/>
	<path fill="#FFFFFF" d="M36.7,22.3l-0.1-2.7l-0.9,0.6c-1.3-0.4-2.7-0.4-3.8,0.1c-1,0.5-2,1.4-1.9,2.8c0.1,1.4,1.2,1.9,2.1,2.3
		c1.2,0.6,2.6,0.7,2.5,1.5c0,0.5-0.8,0.8-1.4,0.8c-0.6,0-2.3-0.2-3.3-1.3l0.2,2.8l1-0.7c1.2,0.4,2.7,0.6,4.1,0.2
		c1.4-0.4,2.8-1.6,2-3.6c-0.3-0.9-1.3-1.4-1.8-1.6c-0.5-0.2-2.1-0.8-2.5-1.1c-0.5-0.3-0.4-1.1,0.8-1.3C34.8,21,36.4,21.9,36.7,22.3"
		/>
	<path fill="#EF4229" d="M7.4,44.5C24.2,27.3,49.3,19.4,57.6,3c-5,15.9-31.8,24.7-50.3,42.3L7.4,44.5z"/>
	<path fill="#FFFFFF" d="M18.8,23.5c-0.2-0.3-0.4-0.7-0.6-1c-4.5-8.1-3.8-16.3,4.3-12.7c6.9,3,13.5,11.6,16.1,17.7
		c1.2,2.8,4.5,13.8-6.1,9.4l0-0.1c10,4.1,8.3-6.3,2.9-14.3c-3-4.5-7-8.3-9.5-10.1c-8.3-6.1-13.4-2.4-7.5,9.5c0.3,0.5,0.5,1,0.8,1.5
		L18.8,23.5z"/>
</g>
<g opacity="0.7">
	<path fill="#FFFFFF" d="M67.5,19c0,1.5-0.4,3.8-3.7,3.8c-1.8,0-3.6-1-3.6-3.5v-1h2.2v0.5c0,1.1,0.3,1.9,1.4,1.9
		c1.3,0,1.3-1.1,1.3-1.8v-7.6h2.4V19z"/>
	<path fill="#FFFFFF" d="M71.2,19c0.1,1.4,0.7,2.1,2,2.1c0.9,0,1.6-0.6,1.7-1.1h1.9c-0.6,1.9-1.9,2.7-3.7,2.7
		c-2.5,0-4.1-1.8-4.1-4.3c0-2.4,1.7-4.3,4.1-4.3c2.7,0,4,2.3,3.9,4.8H71.2z M74.8,17.6c-0.2-1.1-0.7-1.7-1.7-1.7
		c-1.4,0-1.8,1.1-1.8,1.7H74.8z"/>
	<path fill="#FFFFFF" d="M81.1,14.4h1.6v1.5h-1.6v4c0,0.8,0.2,0.9,0.9,0.9c0.2,0,0.4,0,0.7-0.1v1.8c-0.4,0.1-0.9,0.1-1.3,0.1
		c-1.3,0-2.5-0.3-2.5-1.9v-4.8h-1.3v-1.5h1.3V12h2.2V14.4z"/>
	<path fill="#FFFFFF" d="M88.3,11.3h5c2.8,0,3.8,1.8,3.8,3.6c0,1.8-1.1,3.6-3.8,3.6h-2.6v4h-2.4V11.3z M90.7,16.6h1.9
		c1.1,0,2.1-0.3,2.1-1.7c0-1.4-1-1.7-2.1-1.7h-1.9V16.6z"/>
	<path fill="#FFFFFF" d="M98.4,14.4h2.1v1.5h0c0.4-1,1.5-1.7,2.6-1.7c0.2,0,0.3,0,0.5,0.1v2.1c-0.2,0-0.5-0.1-0.8-0.1
		c-1.6,0-2.2,1.2-2.2,2.6v3.7h-2.2V14.4z"/>
	<path fill="#FFFFFF" d="M108,14.2c2.5,0,4.1,1.7,4.1,4.3c0,2.6-1.6,4.3-4.1,4.3c-2.5,0-4.1-1.7-4.1-4.3
		C103.9,15.9,105.5,14.2,108,14.2z M108,21.1c1.5,0,1.9-1.3,1.9-2.6c0-1.3-0.4-2.6-1.9-2.6c-1.5,0-1.9,1.3-1.9,2.6
		C106.1,19.8,106.6,21.1,108,21.1z"/>
	<path fill="#FFFFFF" d="M113.6,14.4h2.1v1h0c0.5-0.9,1.4-1.3,2.4-1.3c2.5,0,3.6,2.1,3.6,4.4c0,2.2-1.2,4.2-3.5,4.2
		c-1,0-1.9-0.4-2.4-1.2h0v3.9h-2.2V14.4z M119.6,18.5c0-1.3-0.5-2.6-1.9-2.6c-1.4,0-1.9,1.3-1.9,2.6c0,1.3,0.5,2.6,1.9,2.6
		C119.1,21.1,119.6,19.9,119.6,18.5z"/>
	<path fill="#FFFFFF" d="M130.6,22.6h-2.1v-1.1h0c-0.6,0.9-1.5,1.4-2.4,1.4c-2.3,0-2.9-1.3-2.9-3.4v-5h2.2V19c0,1.3,0.4,2,1.4,2
		c1.2,0,1.7-0.7,1.7-2.3v-4.3h2.2V22.6z"/>
	<path fill="#FFFFFF" d="M132.3,11.3h2.2v11.3h-2.2V11.3z"/>
	<path fill="#FFFFFF" d="M138,19.9c0,1,0.8,1.4,1.7,1.4c0.6,0,1.4-0.3,1.4-1c0-0.7-0.9-0.9-2.5-1.3c-1.3-0.3-2.5-0.7-2.5-2.2
		c0-2.1,1.8-2.6,3.5-2.6c1.7,0,3.4,0.6,3.5,2.6H141c-0.1-0.9-0.7-1.1-1.5-1.1c-0.5,0-1.2,0.1-1.2,0.8c0,0.8,1.2,0.9,2.5,1.2
		c1.3,0.3,2.5,0.8,2.5,2.3c0,2.1-1.8,2.8-3.7,2.8c-1.9,0-3.7-0.7-3.8-2.9H138z"/>
	<path fill="#FFFFFF" d="M146.8,13.2h-2.2v-1.8h2.2V13.2z M144.7,14.4h2.2v8.1h-2.2V14.4z"/>
	<path fill="#FFFFFF" d="M152.5,14.2c2.5,0,4.1,1.7,4.1,4.3c0,2.6-1.6,4.3-4.1,4.3c-2.5,0-4.1-1.7-4.1-4.3
		C148.3,15.9,150,14.2,152.5,14.2z M152.5,21.1c1.5,0,1.9-1.3,1.9-2.6c0-1.3-0.4-2.6-1.9-2.6c-1.5,0-1.9,1.3-1.9,2.6
		C150.5,19.8,151,21.1,152.5,21.1z"/>
	<path fill="#FFFFFF" d="M158,14.4h2.1v1.1h0.1c0.6-0.9,1.5-1.4,2.4-1.4c2.3,0,2.9,1.3,2.9,3.4v5h-2.2V18c0-1.3-0.4-2-1.4-2
		c-1.2,0-1.7,0.7-1.7,2.3v4.3H158V14.4z"/>
	<path fill="#FFFFFF" d="M171.8,11.3h2.4v9.2h5.4v2.1h-7.8V11.3z"/>
	<path fill="#FFFFFF" d="M180.6,16.9c0.1-2.1,2-2.7,3.8-2.7c1.6,0,3.5,0.4,3.5,2.3v4.2c0,0.7,0.1,1.5,0.3,1.8H186
		c-0.1-0.3-0.1-0.5-0.2-0.8c-0.7,0.7-1.7,1-2.7,1c-1.5,0-2.7-0.8-2.7-2.4c0-1.8,1.4-2.3,2.7-2.5c1.3-0.2,2.6-0.2,2.6-1.1
		c0-1-0.6-1.1-1.4-1.1c-0.8,0-1.4,0.3-1.5,1.2H180.6z M185.7,18.6c-0.4,0.3-1.1,0.3-1.8,0.5c-0.7,0.1-1.3,0.4-1.3,1.2
		c0,0.8,0.6,1,1.3,1c1.7,0,1.8-1.4,1.8-1.9V18.6z"/>
	<path fill="#FFFFFF" d="M189.6,11.3h2.2v4.1h0c0.5-0.8,1.5-1.2,2.5-1.2c1.6,0,3.3,1.3,3.3,4.3c0,3-1.7,4.3-3.3,4.3
		c-1.2,0-2.2-0.4-2.6-1.3h0v1h-2.1V11.3z M193.6,15.9c-1.3,0-1.9,1.2-1.9,2.6c0,1.4,0.6,2.6,1.9,2.6c1.3,0,1.9-1.2,1.9-2.6
		C195.5,17.1,194.9,15.9,193.6,15.9z"/>
	<path fill="#FFFFFF" d="M203,14.2c2.5,0,4.1,1.7,4.1,4.3c0,2.6-1.6,4.3-4.1,4.3c-2.5,0-4.1-1.7-4.1-4.3
		C198.8,15.9,200.5,14.2,203,14.2z M203,21.1c1.5,0,2-1.3,2-2.6c0-1.3-0.4-2.6-2-2.6c-1.5,0-1.9,1.3-1.9,2.6
		C201,19.8,201.5,21.1,203,21.1z"/>
	<path fill="#FFFFFF" d="M208.5,14.4h2.1v1.5h0c0.4-1,1.5-1.7,2.6-1.7c0.2,0,0.3,0,0.5,0.1v2.1c-0.2,0-0.5-0.1-0.8-0.1
		c-1.6,0-2.2,1.2-2.2,2.6v3.7h-2.2V14.4z"/>
	<path fill="#FFFFFF" d="M214.5,16.9c0.1-2.1,2-2.7,3.8-2.7c1.6,0,3.5,0.4,3.5,2.3v4.2c0,0.7,0.1,1.5,0.3,1.8h-2.2
		c-0.1-0.3-0.1-0.5-0.2-0.8c-0.7,0.7-1.7,1-2.7,1c-1.5,0-2.7-0.8-2.7-2.4c0-1.8,1.4-2.3,2.7-2.5c1.3-0.2,2.6-0.2,2.6-1.1
		c0-1-0.7-1.1-1.4-1.1c-0.8,0-1.4,0.3-1.4,1.2H214.5z M219.6,18.6c-0.4,0.3-1.1,0.3-1.8,0.5c-0.7,0.1-1.3,0.4-1.3,1.2
		c0,0.8,0.6,1,1.3,1c1.7,0,1.8-1.4,1.8-1.9V18.6z"/>
	<path fill="#FFFFFF" d="M226.2,14.4h1.6v1.5h-1.6v4c0,0.8,0.2,0.9,0.9,0.9c0.2,0,0.4,0,0.7-0.1v1.8c-0.4,0.1-0.9,0.1-1.3,0.1
		c-1.3,0-2.5-0.3-2.5-1.9v-4.8h-1.3v-1.5h1.3V12h2.2V14.4z"/>
	<path fill="#FFFFFF" d="M232.8,14.2c2.5,0,4.1,1.7,4.1,4.3c0,2.6-1.6,4.3-4.1,4.3c-2.5,0-4.1-1.7-4.1-4.3
		C228.7,15.9,230.3,14.2,232.8,14.2z M232.8,21.1c1.5,0,2-1.3,2-2.6c0-1.3-0.5-2.6-2-2.6c-1.5,0-1.9,1.3-1.9,2.6
		C230.9,19.8,231.3,21.1,232.8,21.1z"/>
	<path fill="#FFFFFF" d="M237.9,14.4h2.1v1.5h0c0.4-1,1.5-1.7,2.6-1.7c0.2,0,0.3,0,0.5,0.1v2.1c-0.2,0-0.5-0.1-0.8-0.1
		c-1.6,0-2.2,1.2-2.2,2.6v3.7h-2.2V14.4z"/>
	<path fill="#FFFFFF" d="M248.6,23.6c-0.5,1.3-1.2,1.8-2.8,1.8c-0.4,0-0.9,0-1.3-0.1v-1.8c0.4,0,0.9,0.1,1.3,0.1
		c0.8-0.1,1-0.9,0.8-1.5l-2.8-7.6h2.3l1.8,5.6h0l1.7-5.6h2.3L248.6,23.6z"/>
	<path fill="#FFFFFF" d="M67.2,31.4c-0.3-1.3-1.3-1.9-2.5-1.9c-2.1,0-3,1.8-3,3.6c0,2.1,0.9,3.8,3,3.8c1.6,0,2.4-1.1,2.6-2.6h1.2
		c-0.2,2.2-1.6,3.6-3.8,3.6c-2.8,0-4.1-2.1-4.1-4.7c0-2.6,1.5-4.7,4.2-4.7c1.8,0,3.4,1,3.6,2.9H67.2z"/>
	<path fill="#FFFFFF" d="M75.7,37.7c-0.2,0.1-0.4,0.2-0.8,0.2c-0.5,0-0.9-0.3-0.9-1c-0.6,0.7-1.4,1-2.3,1c-1.2,0-2.1-0.5-2.1-1.8
		c0-1.5,1.1-1.8,2.2-2c1.2-0.2,2.2-0.1,2.2-1c0-0.9-0.8-1.1-1.4-1.1c-0.9,0-1.5,0.3-1.6,1.2h-1.1c0.1-1.6,1.3-2.2,2.7-2.2
		c1.2,0,2.4,0.3,2.4,1.8v3.3c0,0.5,0,0.7,0.3,0.7c0.1,0,0.2,0,0.3-0.1V37.7z M74,34.3c-0.4,0.3-1.2,0.3-1.9,0.4
		c-0.7,0.1-1.3,0.4-1.3,1.2c0,0.7,0.6,1,1.2,1c1.4,0,2-0.9,2-1.5V34.3z"/>
	<path fill="#FFFFFF" d="M77.1,28.7h1.1v9h-1.1V28.7z"/>
	<path fill="#FFFFFF" d="M81.2,30h-1.1v-1.3h1.1V30z M80.1,31.2h1.1v6.5h-1.1V31.2z"/>
	<path fill="#FFFFFF" d="M83.6,32.1h-1.1v-0.9h1.1v-1c0-1.1,0.6-1.6,1.8-1.6c0.2,0,0.5,0,0.7,0.1v0.9c-0.2-0.1-0.4-0.1-0.6-0.1
		c-0.5,0-0.8,0.2-0.8,0.7v0.9h1.2v0.9h-1.2v5.6h-1.1V32.1z"/>
	<path fill="#FFFFFF" d="M89.9,31c2,0,3.1,1.5,3.1,3.4c0,1.9-1.1,3.4-3.1,3.4c-2,0-3.1-1.5-3.1-3.4C86.7,32.5,87.8,31,89.9,31z
		 M89.9,36.9c1.1,0,2-0.9,2-2.5c0-1.6-0.9-2.5-2-2.5c-1.1,0-2,0.9-2,2.5C87.9,36,88.8,36.9,89.9,36.9z"/>
	<path fill="#FFFFFF" d="M94.5,31.2h1v1.4h0c0.5-1,1.2-1.6,2.4-1.5v1.1c-1.7,0-2.3,1-2.3,2.6v2.9h-1.1V31.2z"/>
	<path fill="#FFFFFF" d="M99.2,31.2h1v1h0c0.4-0.8,1.2-1.2,2.1-1.2c1.7,0,2.2,1,2.2,2.4v4.3h-1.1v-4.4c0-0.8-0.5-1.3-1.3-1.3
		c-1.3,0-1.9,0.9-1.9,2v3.7h-1.1V31.2z"/>
	<path fill="#FFFFFF" d="M107.5,30h-1.1v-1.3h1.1V30z M106.4,31.2h1.1v6.5h-1.1V31.2z"/>
	<path fill="#FFFFFF" d="M115.1,37.7c-0.2,0.1-0.4,0.2-0.8,0.2c-0.5,0-0.9-0.3-0.9-1c-0.6,0.7-1.4,1-2.3,1c-1.2,0-2.1-0.5-2.1-1.8
		c0-1.5,1.1-1.8,2.2-2c1.2-0.2,2.2-0.1,2.2-1c0-0.9-0.8-1.1-1.4-1.1c-0.9,0-1.6,0.3-1.6,1.2h-1.1c0.1-1.6,1.3-2.2,2.7-2.2
		c1.2,0,2.4,0.3,2.4,1.8v3.3c0,0.5,0,0.7,0.3,0.7c0.1,0,0.2,0,0.3-0.1V37.7z M113.4,34.3c-0.4,0.3-1.2,0.3-1.9,0.4
		c-0.7,0.1-1.3,0.4-1.3,1.2c0,0.7,0.6,1,1.2,1c1.4,0,2-0.9,2-1.5V34.3z"/>
	<path fill="#FFFFFF" d="M120.4,28.7h1.2v9h-1.2V28.7z"/>
	<path fill="#FFFFFF" d="M123.7,31.2h1v1h0c0.4-0.8,1.2-1.2,2.1-1.2c1.7,0,2.2,1,2.2,2.4v4.3h-1.1v-4.4c0-0.8-0.5-1.3-1.3-1.3
		c-1.3,0-1.9,0.9-1.9,2v3.7h-1.1V31.2z"/>
	<path fill="#FFFFFF" d="M131.5,35.7c0,1,0.9,1.3,1.7,1.3c0.7,0,1.6-0.2,1.6-1c0-0.8-1-1-2.1-1.2c-1-0.2-2.1-0.6-2.1-1.8
		c0-1.3,1.3-1.9,2.4-1.9c1.4,0,2.5,0.5,2.6,2h-1.1c-0.1-0.8-0.8-1.1-1.5-1.1c-0.6,0-1.4,0.2-1.4,0.8c0,0.8,1.1,0.9,2.1,1.1
		c1.1,0.2,2.1,0.6,2.1,1.9c0,1.6-1.4,2.1-2.7,2.1c-1.4,0-2.7-0.6-2.7-2.2H131.5z"/>
	<path fill="#FFFFFF" d="M138.8,31.2h1.3v0.9h-1.3v4c0,0.5,0.1,0.6,0.8,0.6h0.5v0.9h-0.8c-1.1,0-1.5-0.2-1.5-1.4v-4.1h-1.1v-0.9h1.1
		v-2h1.1V31.2z"/>
	<path fill="#FFFFFF" d="M142.7,30h-1.1v-1.3h1.1V30z M141.7,31.2h1.1v6.5h-1.1V31.2z"/>
	<path fill="#FFFFFF" d="M146.1,31.2h1.3v0.9h-1.3v4c0,0.5,0.1,0.6,0.8,0.6h0.5v0.9h-0.8c-1.1,0-1.5-0.2-1.5-1.4v-4.1H144v-0.9h1.1
		v-2h1.1V31.2z"/>
	<path fill="#FFFFFF" d="M154.2,37.7h-1v-1h0c-0.4,0.8-1.2,1.2-2.1,1.2c-1.7,0-2.2-1-2.2-2.4v-4.3h1.1v4.4c0,0.8,0.5,1.3,1.3,1.3
		c1.3,0,1.9-0.9,1.9-2v-3.7h1.1V37.7z"/>
	<path fill="#FFFFFF" d="M157.5,31.2h1.3v0.9h-1.3v4c0,0.5,0.1,0.6,0.8,0.6h0.5v0.9H158c-1.1,0-1.5-0.2-1.5-1.4v-4.1h-1.1v-0.9h1.1
		v-2h1.1V31.2z"/>
	<path fill="#FFFFFF" d="M165.7,35.6c-0.3,1.4-1.3,2.2-2.7,2.2c-2,0-3-1.4-3.1-3.4c0-2,1.3-3.4,3-3.4c2.3,0,3,2.2,2.9,3.7H161
		c0,1.1,0.6,2.1,2,2.1c0.9,0,1.5-0.4,1.7-1.3H165.7z M164.7,33.8c-0.1-1-0.8-1.8-1.8-1.8c-1.1,0-1.8,0.8-1.8,1.8H164.7z"/>
	<path fill="#FFFFFF" d="M173.8,31c2,0,3.1,1.5,3.1,3.4c0,1.9-1.1,3.4-3.1,3.4c-2,0-3.1-1.5-3.1-3.4C170.6,32.5,171.7,31,173.8,31z
		 M173.8,36.9c1.1,0,2-0.9,2-2.5c0-1.6-0.9-2.5-2-2.5c-1.1,0-2,0.9-2,2.5C171.8,36,172.7,36.9,173.8,36.9z"/>
	<path fill="#FFFFFF" d="M178.9,32.1h-1.1v-0.9h1.1v-1c0-1.1,0.6-1.6,1.8-1.6c0.2,0,0.5,0,0.7,0.1v0.9c-0.2-0.1-0.4-0.1-0.6-0.1
		c-0.5,0-0.8,0.2-0.8,0.7v0.9h1.2v0.9h-1.2v5.6h-1.1V32.1z"/>
	<path fill="#FFFFFF" d="M188.3,29.7h-3v-1h7.1v1h-3v8h-1.2V29.7z"/>
	<path fill="#FFFFFF" d="M197.7,35.6c-0.3,1.4-1.3,2.2-2.7,2.2c-2,0-3-1.4-3.1-3.4c0-2,1.3-3.4,3-3.4c2.3,0,3,2.2,2.9,3.7H193
		c0,1.1,0.6,2.1,2,2.1c0.9,0,1.5-0.4,1.7-1.3H197.7z M196.7,33.8c-0.1-1-0.8-1.8-1.9-1.8c-1.1,0-1.8,0.8-1.8,1.8H196.7z"/>
	<path fill="#FFFFFF" d="M203.5,33.3c-0.2-0.8-0.7-1.3-1.6-1.3c-1.5,0-2,1.2-2,2.5c0,1.2,0.5,2.4,1.9,2.4c1,0,1.6-0.6,1.8-1.6h1.1
		c-0.2,1.6-1.2,2.5-2.8,2.5c-2,0-3-1.4-3-3.3c0-2,1-3.5,3-3.5c1.5,0,2.6,0.7,2.8,2.2H203.5z"/>
	<path fill="#FFFFFF" d="M206.1,28.7h1.1v3.4h0c0.3-0.8,1.3-1.1,2-1.1c1.7,0,2.2,1,2.2,2.4v4.3h-1.1v-4.4c0-0.8-0.5-1.3-1.3-1.3
		c-1.3,0-1.9,0.9-1.9,2v3.7h-1.1V28.7z"/>
	<path fill="#FFFFFF" d="M213.3,31.2h1v1h0c0.4-0.8,1.2-1.2,2.1-1.2c1.7,0,2.2,1,2.2,2.4v4.3h-1.1v-4.4c0-0.8-0.5-1.3-1.3-1.3
		c-1.3,0-1.9,0.9-1.9,2v3.7h-1.1V31.2z"/>
	<path fill="#FFFFFF" d="M223.3,31c2,0,3.1,1.5,3.1,3.4c0,1.9-1.1,3.4-3.1,3.4c-2,0-3.1-1.5-3.1-3.4C220.2,32.5,221.3,31,223.3,31z
		 M223.3,36.9c1.1,0,2-0.9,2-2.5c0-1.6-0.9-2.5-2-2.5c-1.1,0-2,0.9-2,2.5C221.3,36,222.2,36.9,223.3,36.9z"/>
	<path fill="#FFFFFF" d="M228,28.7h1.1v9H228V28.7z"/>
	<path fill="#FFFFFF" d="M233.8,31c2,0,3.1,1.5,3.1,3.4c0,1.9-1.1,3.4-3.1,3.4c-2,0-3.1-1.5-3.1-3.4C230.7,32.5,231.7,31,233.8,31z
		 M233.8,36.9c1.1,0,2-0.9,2-2.5c0-1.6-0.9-2.5-2-2.5c-1.1,0-2,0.9-2,2.5C231.8,36,232.7,36.9,233.8,36.9z"/>
	<path fill="#FFFFFF" d="M244,37.2c0,2.1-1,3.2-3,3.2c-1.2,0-2.6-0.5-2.7-1.9h1.1c0.1,0.8,1,1.1,1.7,1.1c1.4,0,1.9-1,1.9-2.5v-0.4h0
		c-0.3,0.8-1.2,1.2-2,1.2c-1.9,0-2.9-1.5-2.9-3.3c0-1.5,0.7-3.4,3-3.4c0.8,0,1.5,0.4,1.9,1.1h0v-0.9h1V37.2z M242.9,34.3
		c0-1.1-0.5-2.3-1.8-2.3c-1.3,0-1.9,1.1-1.9,2.4c0,1.2,0.4,2.5,1.8,2.5C242.4,36.8,242.9,35.5,242.9,34.3z"/>
	<path fill="#FFFFFF" d="M248.4,38.6c-0.5,1.3-0.9,1.7-1.9,1.7c-0.2,0-0.5,0-0.7-0.1v-1c0.2,0.1,0.4,0.2,0.6,0.2
		c0.4,0,0.7-0.2,0.9-0.6l0.4-1.1l-2.5-6.5h1.2l1.9,5.3h0l1.8-5.3h1.1L248.4,38.6z"/>
</g>
</svg>
